<?xml version="1.0" encoding="UTF-8"?>
<svg id="Layer_1" xmlns="http://www.w3.org/2000/svg" version="1.1" viewBox="0 0 842.7 862.9">
  <!-- Generator: Adobe Illustrator 29.1.0, SVG Export Plug-In . SVG Version: 2.1.0 Build 142)  -->
  <defs>
    <style>
      .st0 {
        fill: #3f6e47;
      }

      .st1 {
        stroke-linecap: round;
        stroke-linejoin: round;
        stroke-width: 9px;
      }

      .st1, .st2, .st3, .st4, .st5, .st6, .st7, .st8 {
        stroke: #000;
      }

      .st1, .st3, .st5, .st8 {
        fill: none;
      }

      .st2, .st4, .st5, .st6, .st7 {
        stroke-miterlimit: 10;
      }

      .st2, .st4, .st6, .st7 {
        stroke-width: .2px;
      }

      .st9, .st6 {
        fill: #414042;
      }

      .st10 {
        fill: #231f20;
      }

      .st11 {
        fill: #614d2a;
      }

      .st3 {
        stroke-width: .3px;
      }

      .st4, .st12 {
        fill: #333;
      }

      .st13 {
        fill: #fff;
      }

      .st14 {
        fill: #a88352;
      }

      .st7 {
        fill: #4d4d4d;
      }
    </style>
  </defs>
  <g id="Shield">
    <g>
      <g>
        <path d="M667.7,230.8v.6l-.7,373c0,18.7-7.8,36.7-21.3,49.5l-221.9,208.9-.7-.7-226.1-215.5c-12.1-11.8-17.2-19.6-17.2-37.3V230.8l.6-.3,243.4-108.2.4.2,243.6,108.3ZM666.7,231.8v-.3l-242.8-107.9h-.2c0,0-242.7,107.8-242.7,107.8h-.3v378.1c0,16.8,4.7,24.5,15.8,35.5.4.3.7.7,1.1,1.1l225.8,215.1.4.3,221.2-208.2c13.4-12.6,21-30.4,21-48.8l.7-372.6h0Z"/>
        <path d="M666.7,231.5v.3l-.7,372.6c0,18.4-7.7,36.2-21,48.8l-221.2,208.2-.4-.3-225.8-215.1c-.4-.4-.7-.7-1.1-1.1-11.1-11-15.8-18.7-15.8-35.5V231.5h.3c0-.1,242.7-108,242.7-108h.2c0,0,242.8,108,242.8,108h0ZM664.9,604.5l.7-372.3-242-107.6-242,107.6v377.3c0,17,4.9,24.5,16.6,35.8l225.4,214.8,220.6-207.6c13.2-12.4,20.7-29.9,20.7-48Z"/>
        <path class="st13" d="M665.7,232.1l-.7,372.3c0,18.1-7.5,35.6-20.7,48l-220.6,207.6-225.4-214.8c-11.7-11.4-16.6-18.9-16.6-35.8V232.1l242-107.6,242,107.6h0ZM650.1,634.4c6-9.5,8.7-20.3,8.5-33.9V239.8l-85.6-39.2h0c0-.1-.3-.1-.3-.1l-148.6-68.1-.4-.2-147.8,68.3h-.3c0,.1-86.4,40.1-86.4,40.1l-.6,320.4v39.5c-.1,15.8-.1,25.3,6.6,33.8h0c.8,1,1.6,2,2.6,2.9l71.9,69h0c0,0,0,0,0,0l75.3,72.3h0c0,0,.1,0,.1,0l77.6,74.5.7.7,78.4-75.2h0c0,0,75.4-72.4,75.4-72.4h0c0,0,62.6-60.1,62.6-60.1,3.9-3.8,7.2-7.7,9.8-11.8h0Z"/>
        <path d="M658.7,600.5c.1,13.6-2.5,24.3-8.5,33.9h0v-1.8c0,0,0-.1.1-.2.7-1.3,1.4-2.5,2-3.8s1.2-2.6,1.7-4c.3-.9.7-1.8,1-2.8,2-6.3,2.9-13.3,2.8-21.2v-39.5h.8v-1.6h.2v41.1Z"/>
        <polygon points="658.7 239.9 658.7 559.4 658.4 559.4 657.7 559.4 657.7 451.6 657.7 345.9 658.2 345.9 658.2 343.9 657.7 343.9 657.7 274.6 658.2 274.6 658.2 272.6 657.7 272.6 657.7 240.5 573.1 201.7 573.1 200.6 658.7 239.9"/>
        <rect x="657.7" y="559.4" width=".8" height="1.6"/>
        <rect x="657.7" y="343.9" width=".5" height="2"/>
        <rect x="657.7" y="272.6" width=".5" height="2"/>
        <path d="M657.7,600.5c0,8-.8,14.9-2.8,21.2-.3.9-.6,1.9-1,2.8-.5,1.4-1.1,2.7-1.7,4-.6,1.3-1.3,2.6-2,3.8,0,0,0,.1-.1.2v-.2h-1c5.4-9,7.8-19.1,7.7-31.8v-39.5h1v39.5h0Z"/>
        <rect x="656.7" y="559.4" width="1" height="1.6"/>
        <rect x="656.7" y="451.6" width="1" height="107.9"/>
        <rect x="656.7" y="345.9" width="1" height="105.7"/>
        <polygon points="656.7 344.9 656.7 343.9 657.7 343.9 657.7 345.9 656.7 345.9 656.7 344.9"/>
        <rect x="656.7" y="274.6" width="1" height="69.3"/>
        <polygon points="656.7 273.6 656.7 272.6 657.7 272.6 657.7 274.6 656.7 274.6 656.7 273.6"/>
        <polygon points="657.7 240.5 657.7 272.6 656.7 272.6 656.7 241.1 572.4 202.5 573.1 202.5 573.1 201.7 657.7 240.5"/>
        <path class="st11" d="M656.7,600.5c.1,12.7-2.2,22.8-7.7,31.8H196.4c-5.7-7.8-5.7-16.5-5.7-31.8v-39.5h466v39.5h0Z"/>
        <rect x="190.7" y="559.4" width="465.9" height="1.6"/>
        <polygon class="st11" points="656.7 451.6 656.7 559.4 190.7 559.4 191 451.6 656.7 451.6"/>
        <polygon class="st14" points="656.7 345.9 656.7 451.6 191 451.6 191.2 345.9 656.7 345.9"/>
        <polygon points="656.7 344.9 656.7 345.9 191.2 345.9 191.2 344.9 656.7 344.9"/>
        <rect x="191.2" y="343.9" width="465.5" height="1"/>
        <polygon class="st14" points="656.7 274.6 656.7 343.9 191.2 343.9 191.3 274.6 656.7 274.6"/>
        <rect x="191.3" y="273.6" width="465.4" height="1"/>
        <rect x="191.3" y="272.6" width="465.4" height="1"/>
        <polygon class="st14" points="656.7 241.1 656.7 272.6 191.3 272.6 191.4 241.8 276.5 202.5 572.4 202.5 656.7 241.1"/>
        <path d="M654.9,621.7c-.3.9-.6,1.9-1,2.8.3-.9.7-1.8,1-2.8Z"/>
        <path d="M652.2,628.5c-.6,1.3-1.3,2.6-2,3.8.7-1.3,1.4-2.5,2-3.8Z"/>
        <path d="M650.1,634.3h0c-2.6,4.2-5.8,8.1-9.8,11.9l-62.6,60v-1.4l62-59.4c2-1.9,3.8-3.8,5.4-5.8.7-.8,1.3-1.6,1.9-2.4.3-.4.6-.8.9-1.2.4-.6.8-1.2,1.2-1.8h1.1Z"/>
        <path d="M650.1,632.5v1.8h-1.1c.4-.6.8-1.2,1.1-1.8Z"/>
        <path d="M648.4,633.3c.2-.3.4-.7.6-1h1v.2c-.3.6-.7,1.2-1.1,1.8h-1.2c.2-.3.4-.7.6-1Z"/>
        <path d="M196.4,632.3h452.6c-.2.3-.4.7-.6,1H197.1c-.3-.3-.5-.7-.8-1Z"/>
        <path d="M647.8,634.3h1.2c-.4.6-.8,1.2-1.2,1.8-.3.4-.6.8-.9,1.2-.6.8-1.2,1.6-1.9,2.4-1.6,2-3.4,3.9-5.4,5.8l-62,59.4v-.5h-.9l62.2-59.6c3.5-3.4,6.4-6.8,8.8-10.5Z"/>
        <path d="M649,634.3c-.4.6-.8,1.2-1.2,1.8.4-.6.8-1.2,1.2-1.8Z"/>
        <path d="M197.1,633.3h451.3c-.2.3-.4.7-.6,1H198c-.3-.3-.6-.7-.8-1Z"/>
        <path class="st11" d="M198,634.3h449.8c-2.4,3.6-5.3,7.1-8.8,10.5l-62.2,59.6h-306l-71.4-68.5c-.5-.5-.9-1-1.4-1.5h0Z"/>
        <path d="M646.9,637.3c-.6.8-1.2,1.6-1.9,2.4.7-.8,1.3-1.6,1.9-2.4Z"/>
        <polygon points="577.7 706.2 577.7 706.3 577.6 706.3 577.7 706.2"/>
        <polygon points="577.7 704.9 577.7 706.2 577.6 706.3 576.2 706.3 577.7 704.9"/>
        <polygon points="575.8 705.3 576.8 704.3 577.7 704.3 577.7 704.9 576.2 706.3 574.7 706.3 575.8 705.3"/>
        <polygon points="577.6 706.3 502.2 778.6 502.2 777.2 576.2 706.3 577.6 706.3"/>
        <polygon points="576.8 704.3 575.8 705.3 271.8 705.3 270.8 704.3 576.8 704.3"/>
        <polygon points="576.2 706.3 502.2 777.2 502.2 776.7 501.3 776.7 574.7 706.3 576.2 706.3"/>
        <polygon points="575.8 705.3 574.7 706.3 272.9 706.3 271.8 705.3 575.8 705.3"/>
        <polygon class="st11" points="574.7 706.3 501.3 776.7 346.2 776.7 272.9 706.3 574.7 706.3"/>
        <polygon points="570.2 201.5 568 200.5 570.4 200.5 570.4 200.5 573.1 201.7 573.1 202.5 572.4 202.5 570.2 201.5"/>
        <polygon points="573.1 200.6 573.1 201.7 570.4 200.5 572.8 200.5 573.1 200.6"/>
        <polygon points="573.1 200.5 573.1 200.6 572.8 200.5 573.1 200.5"/>
        <polygon points="572.8 200.5 570.4 200.5 570.4 200.5 424 133.4 423.8 133.3 278.4 200.5 278.4 200.5 276 200.5 423.8 132.2 424.2 132.4 572.8 200.5"/>
        <polygon points="572.4 202.5 276.5 202.5 278.6 201.5 570.2 201.5 572.4 202.5"/>
        <polygon points="424 133.4 570.4 200.5 568 200.5 423.8 134.4 280.8 200.5 278.4 200.5 423.8 133.3 424 133.4"/>
        <polygon points="570.2 201.5 278.6 201.5 280.8 200.5 568 200.5 570.2 201.5"/>
        <polygon class="st14" points="568 200.5 280.8 200.5 423.8 134.4 568 200.5"/>
        <polygon points="502.2 778.6 502.2 778.7 502.1 778.7 502.2 778.6"/>
        <polygon points="502.2 777.2 502.2 778.6 502.1 778.7 500.6 778.7 502.2 777.2"/>
        <polygon points="500.2 777.7 501.3 776.7 502.2 776.7 502.2 777.2 500.6 778.7 499.2 778.7 500.2 777.7"/>
        <polygon points="502.1 778.7 423.7 853.9 423 853.2 345.4 778.7 346.8 778.7 423.3 852.2 423.7 852.5 500.6 778.7 502.1 778.7"/>
        <polygon points="501.3 776.7 500.2 777.7 347.2 777.7 346.2 776.7 501.3 776.7"/>
        <polygon points="500.6 778.7 423.7 852.5 423.3 852.2 346.8 778.7 348.3 778.7 423.7 851.1 499.2 778.7 500.6 778.7"/>
        <polygon points="500.2 777.7 499.2 778.7 348.3 778.7 347.2 777.7 500.2 777.7"/>
        <polygon class="st11" points="499.2 778.7 423.7 851.1 348.3 778.7 499.2 778.7"/>
        <polygon points="347.2 777.7 348.3 778.7 346.8 778.7 345.3 777.2 345.3 776.7 346.2 776.7 347.2 777.7"/>
        <polygon points="345.3 777.2 346.8 778.7 345.4 778.7 345.3 778.6 345.3 777.2"/>
        <polygon points="272.9 706.3 346.2 776.7 345.3 776.7 345.3 777.2 271.4 706.3 272.9 706.3"/>
        <polygon points="345.4 778.7 345.3 778.7 345.3 778.6 345.4 778.7"/>
        <polygon points="345.3 777.2 345.3 778.6 270 706.3 271.4 706.3 345.3 777.2"/>
        <polygon points="278.6 201.5 276.5 202.5 275.7 202.5 275.7 201.7 278.4 200.5 278.4 200.5 280.8 200.5 278.6 201.5"/>
        <polygon points="278.4 200.5 275.7 201.7 275.7 200.6 276 200.5 278.4 200.5"/>
        <polygon points="276.5 202.5 191.4 241.8 191.3 272.6 190.3 272.6 190.4 241.2 190.7 241.1 275.7 201.7 275.7 202.5 276.5 202.5"/>
        <polygon points="276 200.5 275.7 200.6 275.7 200.5 276 200.5"/>
        <polygon points="190 451.6 189.7 559.4 188.9 559.4 188.9 561 188.7 561 189.4 240.5 275.7 200.6 275.7 201.7 190.7 241.1 190.4 241.2 190.3 272.6 189.8 272.6 189.8 274.6 190.3 274.6 190.2 343.9 189.7 343.9 189.7 345.9 190.2 345.9 190 451.6"/>
        <polygon points="271.8 705.3 272.9 706.3 271.4 706.3 269.9 704.9 269.9 704.3 270.8 704.3 271.8 705.3"/>
        <polygon points="269.9 704.9 271.4 706.3 270 706.3 269.9 706.2 269.9 704.9"/>
        <path d="M270.8,704.3h-.9v.5l-71.2-68.4c-.7-.7-1.4-1.5-2-2.2h1.3c.4.5.9,1,1.4,1.5l71.4,68.5h0Z"/>
        <polygon points="270 706.3 269.9 706.3 269.9 706.2 270 706.3"/>
        <path d="M269.9,704.9v1.4l-71.9-69c-1-1-1.8-1.9-2.6-2.9h1.3c.6.7,1.3,1.5,2,2.2l71.2,68.4h0Z"/>
        <path d="M197.1,633.3c.3.3.5.7.8,1h-1.3c0,0-.1-.2-.2-.2-.4-.5-.8-1-1.1-1.4v-.3h1c.2.3.5.7.8,1h0Z"/>
        <path d="M196.5,634.1c0,0,.1.2.2.2h-1.3v-1.7c.3.5.7.9,1.1,1.4h0Z"/>
        <path d="M196.4,632.3h-1v.3c-4.4-6.1-5.4-12.9-5.6-22.5,0-2.9,0-6.1,0-9.7v-39.5h1.1v39.5c-.1,15.4-.1,24.1,5.6,31.8h0Z"/>
        <path d="M195.4,632.6c.3.5.7,1,1.1,1.4-.4-.5-.8-.9-1.1-1.4h0Z"/>
        <path d="M195.4,634.3h0s0,0,0,0Z"/>
        <path d="M195.4,632.7v1.6c-6.8-8.5-6.7-18-6.7-33.8v-39.5h1.1v39.5c0,3.5,0,6.8,0,9.7.2,9.8,1.2,16.4,5.6,22.5Z"/>
        <path d="M195.4,632.6h0c-4.4-6.1-5.4-12.7-5.6-22.5.2,9.5,1.3,16.3,5.6,22.5Z"/>
        <polygon points="191.3 273.6 191.3 274.6 190.3 274.6 190.3 272.6 191.3 272.6 191.3 273.6"/>
        <polygon points="191.3 274.6 191.2 343.9 190.2 343.9 190.3 274.6 191.3 274.6"/>
        <polygon points="191.2 344.9 191.2 345.9 190.2 345.9 190.2 343.9 191.2 343.9 191.2 344.9"/>
        <polygon points="191.2 345.9 191 451.6 190 451.6 190.2 345.9 191.2 345.9"/>
        <polygon points="191 451.6 190.7 559.4 189.7 559.4 190 451.6 191 451.6"/>
        <rect x="189.7" y="559.4" width="1" height="1.6"/>
        <polygon points="190.3 272.6 190.3 274.6 189.8 274.6 189.8 272.6 190.3 272.6"/>
        <polygon points="190.2 343.9 190.2 345.9 189.7 345.9 189.7 343.9 190.2 343.9"/>
        <rect x="188.9" y="559.4" width=".8" height="1.6"/>
      </g>
      <polyline class="st1" points="189.8 451.6 190 451.6 191 451.6 656.7 451.6 657.7 451.6"/>
    </g>
  </g>
  <g id="Weight_Rack">
    <g>
      <polygon points="730.2 136 730.2 145.7 721.2 154.7 721.2 154 720.5 154 729.2 145.3 729.2 137 712.2 137 712.2 136 730.2 136"/>
      <polygon class="st9" points="729.2 137 729.2 145.3 720.5 154 666.9 154 658.2 145.3 658.2 137 675.2 137 675.2 137.3 675.2 146.3 693.8 137 712.2 137 729.2 137"/>
      <polygon points="721.2 154.7 721.2 443 666.2 443 666.2 154.7 666.5 155 667.2 155 667.2 442 720.2 442 720.2 155 720.9 155 721.2 154.7"/>
      <polygon points="721.2 154 721.2 154.7 720.9 155 720.2 155 667.2 155 666.5 155 666.2 154.7 666.2 154 666.9 154 720.5 154 721.2 154"/>
      <polygon points="721.2 46 721.2 56 712.2 56 712.2 55.8 712.2 55 720.2 55 720.2 47 712.9 47 712.2 46.3 712.2 46 721.2 46"/>
      <rect class="st0" x="667.2" y="155" width="53" height="287"/>
      <polygon class="st9" points="720.2 47 720.2 55 712.2 55 712.2 54.7 712.2 47 712.9 47 720.2 47"/>
      <polygon points="712.9 47 712.2 47 712.2 46.3 712.9 47"/>
      <polygon points="712.2 136 712.2 137 693.8 137 695.8 136 711.2 136 712.2 136"/>
      <polygon points="712.2 127.8 712.2 136 711.2 136 711.2 128.3 712.2 127.8"/>
      <polygon points="712.2 118.8 712.2 127.8 711.2 128.3 711.2 127.2 711.2 119.3 712.2 118.8"/>
      <polygon points="712.2 117.7 712.2 118.8 711.2 119.3 711.2 118.2 712.2 117.7"/>
      <polygon points="712.2 109.8 712.2 117.7 711.2 118.2 711.2 110.3 712.2 109.8"/>
      <polygon points="712.2 108.7 712.2 109.8 711.2 110.3 711.2 109.2 712.2 108.7"/>
      <polygon points="712.2 100.8 712.2 108.7 711.2 109.2 711.2 101.3 712.2 100.8"/>
      <polygon points="712.2 99.7 712.2 100.8 711.2 101.3 711.2 100.2 712.2 99.7"/>
      <polygon points="712.2 91.8 712.2 99.7 711.2 100.2 711.2 92.3 712.2 91.8"/>
      <polygon points="712.2 90.7 712.2 91.8 711.2 92.3 711.2 91.2 712.2 90.7"/>
      <polygon points="712.2 82.8 712.2 90.7 711.2 91.2 711.2 83.3 712.2 82.8"/>
      <polygon points="712.2 81.7 712.2 82.8 711.2 83.3 711.2 82.2 712.2 81.7"/>
      <polygon points="712.2 73.8 712.2 81.7 711.2 82.2 711.2 74.3 712.2 73.8"/>
      <polygon points="712.2 72.7 712.2 73.8 711.2 74.3 711.2 73.2 712.2 72.7"/>
      <polygon points="712.2 64.8 712.2 72.7 711.2 73.2 711.2 65.3 712.2 64.8"/>
      <polygon points="712.2 63.7 712.2 64.8 711.2 65.3 711.2 64.2 712.2 63.7"/>
      <polygon points="712.2 56 712.2 63.7 711.2 64.2 711.2 56.3 711.8 56 712.2 56"/>
      <polygon points="712.2 55.8 712.2 56 711.8 56 712.2 55.8"/>
      <polygon points="712.2 55 712.2 55.8 711.8 56 711.2 56 709.5 56 711.2 55.2 711.5 55 712.2 55"/>
      <polygon points="712.2 54.7 712.2 55 711.5 55 712.2 54.7"/>
      <polygon class="st9" points="712.2 47 712.2 54.7 711.5 55 711.2 55 711.2 47.3 695.8 55 693.5 55 709.5 47 712.2 47"/>
      <polygon points="712.2 46.3 712.2 47 709.5 47 711.5 46 711.9 46 712.2 46.3"/>
      <polygon points="712.2 46 712.2 46.3 711.9 46 712.2 46"/>
      <polygon points="712.2 45.7 712.2 46 711.9 46 711.8 45.9 712.2 45.7"/>
      <polygon points="711.9 46 711.5 46 711.8 45.9 711.9 46"/>
      <polygon points="711.8 56 711.2 56.3 711.2 56 711.8 56"/>
      <path class="st10" d="M711.8,45.9h-.2c0,.1-1.1.1-1.1.1l-4.1-4.1c.2-.2.5-.5.7-.7l4.7,4.7h0Z"/>
      <path d="M711.5,46l-2,1h-15.9c2.1,0,4.1-.3,6-1h11.9Z"/>
      <polygon points="711.5 55 711.2 55.2 711.2 55 711.5 55"/>
      <polygon class="st11" points="711.2 128.3 711.2 136 695.8 136 711.2 128.3"/>
      <polygon points="711.2 127.2 711.2 128.3 695.8 136 693.5 136 711.2 127.2"/>
      <polygon class="st11" points="711.2 119.3 711.2 127.2 693.5 136 677.8 136 711.2 119.3"/>
      <polygon points="711.2 118.2 711.2 119.3 677.8 136 676.2 136 676.2 135.7 711.2 118.2"/>
      <polygon class="st11" points="711.2 110.3 711.2 118.2 676.2 135.7 676.2 127.8 711.2 110.3"/>
      <polygon points="711.2 109.2 711.2 110.3 676.2 127.8 676.2 126.7 711.2 109.2"/>
      <polygon class="st11" points="711.2 101.3 711.2 109.2 676.2 126.7 676.2 118.8 711.2 101.3"/>
      <polygon points="711.2 100.2 711.2 101.3 676.2 118.8 676.2 117.7 711.2 100.2"/>
      <polygon class="st11" points="711.2 92.3 711.2 100.2 676.2 117.7 676.2 109.8 711.2 92.3"/>
      <polygon points="711.2 91.2 711.2 92.3 676.2 109.8 676.2 108.7 711.2 91.2"/>
      <polygon class="st11" points="711.2 83.3 711.2 91.2 676.2 108.7 676.2 100.8 711.2 83.3"/>
      <polygon points="711.2 82.2 711.2 83.3 676.2 100.8 676.2 99.7 711.2 82.2"/>
      <polygon class="st11" points="711.2 74.3 711.2 82.2 676.2 99.7 676.2 91.8 711.2 74.3"/>
      <polygon points="711.2 73.2 711.2 74.3 676.2 91.8 676.2 90.7 711.2 73.2"/>
      <polygon class="st11" points="711.2 65.3 711.2 73.2 676.2 90.7 676.2 82.8 711.2 65.3"/>
      <polygon points="711.2 64.2 711.2 65.3 676.2 82.8 676.2 81.7 711.2 64.2"/>
      <polygon class="st11" points="711.2 56.3 711.2 64.2 676.2 81.7 676.2 73.8 711.2 56.3"/>
      <polygon points="711.2 56 711.2 56.3 676.2 73.8 676.2 72.7 709.5 56 711.2 56"/>
      <polygon points="711.2 55 711.2 55.2 709.5 56 693.8 56 695.8 55 711.2 55"/>
      <polygon class="st9" points="711.2 47.3 711.2 55 695.8 55 711.2 47.3"/>
      <path class="st9" d="M710.5,46h-10.8c2.5-.9,4.8-2.3,6.7-4.1l4.1,4.1Z"/>
      <polygon class="st9" points="709.5 47 693.5 55 675.2 55 667.2 55 667.2 47 674.5 47 693.7 47 709.5 47"/>
      <polygon class="st11" points="709.5 56 676.2 72.7 676.2 64.8 693.8 56 709.5 56"/>
      <path d="M704.6,38.2c4.5-5.1,3.4-12.9,3.3-13.3v-.7c-.1,0-.8.4-.8.4-1.6.9-13.1,7.5-17.3,12.4h-5.5l-3.5,3.5c-3-3.1-4.8-7.4-4.8-12,0-9.7,7.8-17.5,17.5-17.5s17.5,7.8,17.5,17.5-1.8,8.9-4.8,12l-2-2c0,0,.2-.2.2-.3h0Z"/>
      <path d="M707.9,24.9c0,.3,1.1,8.1-3.3,13.3,0,0-.2.2-.2.3l-.7-.7c0,0,.1-.1.2-.2,3.4-3.9,3.3-9.7,3.2-11.7-5.4,3.1-12.5,7.8-15.8,11.2h-1.3c4.2-4.9,15.7-11.5,17.3-12.4l.6-.4v.7q.1,0,.1,0Z"/>
      <path d="M693.7,10c10.2,0,18.5,8.3,18.5,18.5s-1.9,9.4-5.1,12.7l-.7-.7c3-3.1,4.8-7.4,4.8-12,0-9.7-7.8-17.5-17.5-17.5s-17.5,7.8-17.5,17.5,1.8,8.9,4.8,12l-.7.7c-3.2-3.3-5.1-7.8-5.1-12.7,0-10.2,8.3-18.5,18.5-18.5h0Z"/>
      <path d="M707.1,41.2c-.2.2-.5.5-.7.7l-.7-.7c.2-.2.5-.5.7-.7l.7.7Z"/>
      <path d="M706.4,40.5c-.2.2-.5.5-.7.7l-2-2c.2-.2.5-.5.7-.7l2,2Z"/>
      <path d="M705.7,41.2l.7.7c-1.9,1.8-4.2,3.2-6.7,4.1h-6c4.7,0,8.9-1.8,12-4.8h0Z"/>
      <path d="M703.6,39.2l2,2c-3.1,3-7.4,4.8-12,4.8s-8.9-1.8-12-4.8l3.2-3.2h4.3c-.6.9-.9,1.8-.7,2.5.3,1.3,2.1,2,5.2,2s7.5-1.1,10-3.3Z"/>
      <path d="M703.6,37.8l.7.7c-.2.2-.5.5-.7.7l-.7-.7c.2-.2.5-.5.7-.7Z"/>
      <path d="M702.9,38.5l.7.7c-2.4,2.2-5.8,3.3-10,3.3s-4.9-.7-5.2-2c-.2-.7,0-1.6.7-2.5h1.2c-.7.9-1.1,1.7-.9,2.3.2.8,1.7,1.2,4.3,1.2,3.9,0,7-1,9.3-3Z"/>
      <path class="st13" d="M702.9,37l.8.8c-.2.2-.5.5-.7.7l-.5-.5h-12.1c.2-.3.5-.7.9-1h11.7Z"/>
      <path d="M693.7,46h6c-1.9.7-3.9,1-6,1s-4.1-.3-6-1h6Z"/>
      <polygon points="695.8 55 693.8 56 691.5 56 693.5 55 695.8 55"/>
      <polygon points="695.8 136 693.8 137 691.5 137 693.5 136 695.8 136"/>
      <polygon points="693.8 56 676.2 64.8 676.2 63.7 691.5 56 693.8 56"/>
      <polygon class="st9" points="693.8 137 675.2 146.3 675.2 137.3 675.8 137 676.2 137 676.2 144.7 691.5 137 693.8 137"/>
      <path d="M693.7,46h-6c-2.5-.9-4.8-2.3-6.7-4.1l.7-.7c3.1,3,7.4,4.8,12,4.8h0Z"/>
      <path d="M693.7,47h-19.2l1-1h12.2c1.9.7,3.9,1,6,1h0Z"/>
      <polygon points="693.5 55 691.5 56 676.2 56 675.2 56 675.2 55 693.5 55"/>
      <polygon points="693.5 136 691.5 137 676.2 137 676.2 136.8 677.8 136 693.5 136"/>
      <polygon class="st11" points="691.5 56 676.2 63.7 676.2 56 691.5 56"/>
      <polygon class="st9" points="691.5 137 676.2 144.7 676.2 137 691.5 137"/>
      <path d="M689.9,37h1.3c-.3.3-.6.7-.9,1h-1.2c.2-.3.5-.7.8-1Z"/>
      <path d="M684.5,37h5.5c-.3.3-.5.7-.8,1h-4.3l-3.2,3.2c-.2-.2-.5-.5-.7-.7l3.5-3.5h0Z"/>
      <path class="st9" d="M687.7,46h-10.8l4.1-4.1c1.9,1.8,4.2,3.2,6.7,4.1Z"/>
      <path d="M681.7,41.2l-.7.7c-.2-.2-.5-.5-.7-.7l.7-.7c.2.2.5.5.7.7Z"/>
      <path class="st10" d="M680.2,41.2c.2.2.5.5.7.7l-4.1,4.1h-1.4l4.8-4.8Z"/>
      <polygon points="677.8 136 676.2 136.8 675.8 137 675.2 137 675.2 136.2 675.5 136 676.2 136 677.8 136"/>
      <polygon points="676.2 136.8 676.2 137 675.8 137 676.2 136.8"/>
      <polygon points="676.2 135.7 676.2 136 675.5 136 676.2 135.7"/>
      <polygon points="676.2 127.8 676.2 135.7 675.5 136 675.2 136 675.2 128.3 676.2 127.8"/>
      <polygon points="676.2 126.7 676.2 127.8 675.2 128.3 675.2 127.2 676.2 126.7"/>
      <polygon points="676.2 118.8 676.2 126.7 675.2 127.2 675.2 119.3 676.2 118.8"/>
      <polygon points="676.2 117.7 676.2 118.8 675.2 119.3 675.2 118.2 676.2 117.7"/>
      <polygon points="676.2 109.8 676.2 117.7 675.2 118.2 675.2 110.3 676.2 109.8"/>
      <polygon points="676.2 108.7 676.2 109.8 675.2 110.3 675.2 109.2 676.2 108.7"/>
      <polygon points="676.2 100.8 676.2 108.7 675.2 109.2 675.2 101.3 676.2 100.8"/>
      <polygon points="676.2 99.7 676.2 100.8 675.2 101.3 675.2 100.2 676.2 99.7"/>
      <polygon points="676.2 91.8 676.2 99.7 675.2 100.2 675.2 92.3 676.2 91.8"/>
      <polygon points="676.2 90.7 676.2 91.8 675.2 92.3 675.2 91.2 676.2 90.7"/>
      <polygon points="676.2 82.8 676.2 90.7 675.2 91.2 675.2 83.3 676.2 82.8"/>
      <polygon points="676.2 81.7 676.2 82.8 675.2 83.3 675.2 82.2 676.2 81.7"/>
      <polygon points="676.2 73.8 676.2 81.7 675.2 82.2 675.2 74.3 676.2 73.8"/>
      <polygon points="676.2 72.7 676.2 73.8 675.2 74.3 675.2 73.2 676.2 72.7"/>
      <polygon points="676.2 64.8 676.2 72.7 675.2 73.2 675.2 64.2 676.2 63.7 676.2 64.8"/>
      <polygon points="676.2 56 676.2 63.7 675.2 64.2 675.2 56 676.2 56"/>
      <polygon points="675.8 137 675.2 137.3 675.2 137 675.8 137"/>
      <polygon points="675.5 136 675.2 136.2 675.2 136 675.5 136"/>
      <polygon points="675.5 46 674.5 47 667.2 47 667.2 55 675.2 55 675.2 56 666.2 56 666.2 46 675.5 46"/>
      <polygon points="675.2 136.2 675.2 137 658.2 137 658.2 145.3 666.9 154 666.2 154 666.2 154.7 657.2 145.7 657.2 136 675.2 136 675.2 136.2"/>
      <polygon points="190.2 136 190.2 145.7 181.2 154.7 181.2 154 180.5 154 189.2 145.3 189.2 137 172.2 137 172.2 136 190.2 136"/>
      <polygon class="st9" points="189.2 137 189.2 145.3 180.5 154 126.9 154 118.2 145.3 118.2 137 135.2 137 135.2 137.3 135.2 146.3 153.8 137 172.2 137 189.2 137"/>
      <polygon points="181.2 154.7 181.2 443 126.2 443 126.2 154.7 126.5 155 127.2 155 127.2 442 180.2 442 180.2 155 180.9 155 181.2 154.7"/>
      <polygon points="181.2 154 181.2 154.7 180.9 155 180.2 155 127.2 155 126.5 155 126.2 154.7 126.2 154 126.9 154 180.5 154 181.2 154"/>
      <polygon points="181.2 46 181.2 56 172.2 56 172.2 55.8 172.2 55 180.2 55 180.2 47 172.9 47 172.2 46.3 172.2 46 181.2 46"/>
      <rect class="st0" x="127.2" y="155" width="53" height="287"/>
      <polygon class="st9" points="180.2 47 180.2 55 172.2 55 172.2 47 172.9 47 180.2 47"/>
      <polygon points="172.9 47 172.2 47 172.2 46.3 172.9 47"/>
      <polygon points="172.2 136 172.2 137 153.8 137 155.8 136 171.2 136 172.2 136"/>
      <polygon points="172.2 127.8 172.2 136 171.2 136 171.2 128.3 172.2 127.8"/>
      <polygon points="172.2 118.8 172.2 127.8 171.2 128.3 171.2 127.2 171.2 119.3 172.2 118.8"/>
      <polygon points="172.2 117.7 172.2 118.8 171.2 119.3 171.2 118.2 172.2 117.7"/>
      <polygon points="172.2 108.7 172.2 117.7 171.2 118.2 171.2 110.3 171.2 109.2 172.2 108.7"/>
      <polygon points="172.2 100.8 172.2 108.7 171.2 109.2 171.2 101.3 172.2 100.8"/>
      <polygon points="172.2 90.7 172.2 100.8 171.2 101.3 171.2 100.2 171.2 92.3 171.2 91.2 172.2 90.7"/>
      <polygon points="172.2 82.8 172.2 90.7 171.2 91.2 171.2 83.3 172.2 82.8"/>
      <polygon points="172.2 73.8 172.2 82.8 171.2 83.3 171.2 82.2 171.2 74.3 172.2 73.8"/>
      <polygon points="172.2 72.7 172.2 73.8 171.2 74.3 171.2 73.2 172.2 72.7"/>
      <polygon points="172.2 63.7 172.2 72.7 171.2 73.2 171.2 65.3 171.2 64.2 172.2 63.7"/>
      <polygon points="172.2 56 172.2 63.7 171.2 64.2 171.2 56.3 171.8 56 172.2 56"/>
      <polygon points="172.2 55.8 172.2 56 171.8 56 172.2 55.8"/>
      <polygon points="172.2 55 172.2 55.8 171.8 56 171.2 56 169.5 56 171.2 55.2 171.2 55 172.2 55"/>
      <polygon class="st9" points="172.2 47 172.2 55 171.2 55 171.2 47.3 155.8 55 153.5 55 169.5 47 172.2 47"/>
      <polygon points="172.2 46.3 172.2 47 169.5 47 171.5 46 171.9 46 172.2 46.3"/>
      <polygon points="172.2 46 172.2 46.3 171.9 46 172.2 46"/>
      <polygon points="172.2 45.7 172.2 46 171.9 46 171.8 45.9 172.2 45.7"/>
      <polygon points="171.9 46 171.5 46 171.8 45.9 171.9 46"/>
      <polygon points="171.8 56 171.2 56.3 171.2 56 171.8 56"/>
      <path class="st10" d="M171.8,45.9h-.2c0,.1-1.1.1-1.1.1l-4.1-4.1c.2-.2.5-.5.7-.7l4.7,4.7Z"/>
      <path d="M171.5,46l-2,1h-15.9c2.1,0,4.1-.3,6-1h11.9Z"/>
      <polygon class="st11" points="171.2 128.3 171.2 136 155.8 136 171.2 128.3"/>
      <polygon points="171.2 127.2 171.2 128.3 155.8 136 153.5 136 171.2 127.2"/>
      <polygon class="st11" points="171.2 119.3 171.2 127.2 153.5 136 137.8 136 171.2 119.3"/>
      <polygon points="171.2 118.2 171.2 119.3 137.8 136 136.2 136 136.2 135.7 171.2 118.2"/>
      <polygon class="st11" points="171.2 110.3 171.2 118.2 136.2 135.7 136.2 127.8 171.2 110.3"/>
      <polygon points="171.2 109.2 171.2 110.3 136.2 127.8 136.2 126.7 171.2 109.2"/>
      <polygon class="st11" points="171.2 101.3 171.2 109.2 136.2 126.7 136.2 118.8 171.2 101.3"/>
      <polygon points="171.2 100.2 171.2 101.3 136.2 118.8 136.2 117.7 171.2 100.2"/>
      <polygon class="st11" points="171.2 92.3 171.2 100.2 136.2 117.7 136.2 109.8 171.2 92.3"/>
      <polygon points="171.2 91.2 171.2 92.3 136.2 109.8 136.2 108.7 171.2 91.2"/>
      <polygon class="st11" points="171.2 83.3 171.2 91.2 136.2 108.7 136.2 100.8 171.2 83.3"/>
      <polygon points="171.2 82.2 171.2 83.3 136.2 100.8 136.2 99.7 171.2 82.2"/>
      <polygon class="st11" points="171.2 74.3 171.2 82.2 136.2 99.7 136.2 91.8 171.2 74.3"/>
      <polygon points="171.2 73.2 171.2 74.3 136.2 91.8 136.2 90.7 171.2 73.2"/>
      <polygon class="st11" points="171.2 65.3 171.2 73.2 136.2 90.7 136.2 82.8 171.2 65.3"/>
      <polygon points="171.2 64.2 171.2 65.3 136.2 82.8 136.2 81.7 171.2 64.2"/>
      <polygon class="st11" points="171.2 56.3 171.2 64.2 136.2 81.7 136.2 73.8 171.2 56.3"/>
      <polygon points="171.2 56 171.2 56.3 136.2 73.8 136.2 72.7 169.5 56 171.2 56"/>
      <polygon points="171.2 55 171.2 55.2 169.5 56 153.8 56 155.8 55 171.2 55"/>
      <polygon class="st9" points="171.2 47.3 171.2 55 155.8 55 171.2 47.3"/>
      <path class="st9" d="M170.5,46h-10.8c2.5-.9,4.8-2.3,6.7-4.1l4.1,4.1Z"/>
      <polygon class="st9" points="169.5 47 153.5 55 135.2 55 127.2 55 127.2 47 134.5 47 153.7 47 169.5 47"/>
      <polygon class="st11" points="169.5 56 136.2 72.7 136.2 64.8 153.8 56 169.5 56"/>
      <path d="M164.6,38.2c4.5-5.1,3.4-12.9,3.3-13.3v-.7c-.1,0-.7.4-.7.4-1.6.9-13.1,7.5-17.3,12.4h-5.4l-3.5,3.5c-3-3.1-4.8-7.4-4.8-12,0-9.7,7.9-17.5,17.5-17.5s17.5,7.8,17.5,17.5-1.8,8.9-4.8,12l-2-2c0,0,.2-.2.2-.3h0Z"/>
      <path d="M167.9,24.9c0,.3,1.1,8.1-3.3,13.3,0,0-.2.2-.2.3l-.7-.7c0,0,.1-.1.2-.2,3.4-3.9,3.3-9.7,3.2-11.7-5.4,3.1-12.5,7.8-15.8,11.2h-1.3c4.2-4.9,15.7-11.5,17.3-12.4l.6-.4v.7Z"/>
      <path d="M153.7,10c10.2,0,18.5,8.3,18.5,18.5s-1.9,9.4-5.1,12.7l-.7-.7c3-3.1,4.8-7.4,4.8-12,0-9.7-7.9-17.5-17.5-17.5s-17.5,7.8-17.5,17.5,1.8,8.9,4.8,12l-.7.7c-3.2-3.3-5.1-7.8-5.1-12.7,0-10.2,8.3-18.5,18.5-18.5h0Z"/>
      <path d="M167.1,41.2c-.2.2-.5.5-.7.7l-.7-.7c.2-.2.5-.5.7-.7l.7.7Z"/>
      <path d="M166.4,40.5c-.2.2-.5.5-.7.7l-2-2c.2-.2.5-.5.7-.7l2,2Z"/>
      <path d="M165.7,41.2l.7.7c-1.9,1.8-4.2,3.2-6.7,4.1h-6c4.6,0,8.9-1.8,12-4.8h0Z"/>
      <path d="M163.6,39.2l2,2c-3.1,3-7.4,4.8-12,4.8s-8.9-1.8-12-4.8l3.2-3.2h4.3c-.6.9-.9,1.8-.7,2.5.4,1.3,2.1,2,5.2,2s7.5-1.1,10-3.3h0Z"/>
      <path d="M163.6,37.8l.7.7c-.2.2-.4.5-.7.7l-.7-.7c.2-.2.5-.5.7-.7Z"/>
      <path d="M162.9,38.5l.7.7c-2.4,2.2-5.8,3.3-10,3.3s-4.9-.7-5.2-2c-.2-.7.1-1.6.7-2.5h1.2c-.7.9-1.1,1.7-.9,2.3.2.8,1.7,1.2,4.3,1.2,3.9,0,7-1,9.3-3h0Z"/>
      <path class="st13" d="M162.9,37l.8.8c-.2.2-.4.5-.7.7l-.5-.5h-12.1c.2-.3.6-.7.9-1h11.7Z"/>
      <path d="M153.7,46h6c-1.9.7-3.9,1-6,1s-4.1-.3-6-1h6Z"/>
      <polygon points="155.8 55 153.8 56 151.5 56 153.5 55 155.8 55"/>
      <polygon points="155.8 136 153.8 137 151.5 137 153.5 136 155.8 136"/>
      <polygon points="153.8 56 136.2 64.8 136.2 63.7 151.5 56 153.8 56"/>
      <polygon class="st9" points="153.8 137 135.2 146.3 135.2 137.3 135.8 137 136.2 137 136.2 144.7 151.5 137 153.8 137"/>
      <path d="M153.7,46h-6c-2.5-.9-4.8-2.3-6.7-4.1l.7-.7c3.1,3,7.4,4.8,12,4.8Z"/>
      <path d="M153.7,47h-19.2l1-1h12.2c1.9.7,3.9,1,6,1h0Z"/>
      <polygon points="153.5 55 151.5 56 136.2 56 135.2 56 135.2 55 153.5 55"/>
      <polygon points="153.5 136 151.5 137 136.2 137 136.2 136.8 137.8 136 153.5 136"/>
      <polygon class="st11" points="151.5 56 136.2 63.7 136.2 56 151.5 56"/>
      <polygon class="st9" points="151.5 137 136.2 144.7 136.2 137 151.5 137"/>
      <path d="M149.9,37h1.3c-.3.3-.6.7-.9,1h-1.2c.2-.3.5-.7.8-1Z"/>
      <path d="M144.5,37h5.4c-.3.3-.6.7-.8,1h-4.3l-3.2,3.2c-.2-.2-.5-.5-.7-.7l3.5-3.5h0Z"/>
      <path class="st9" d="M147.7,46h-10.8l4.1-4.1c1.9,1.8,4.2,3.2,6.7,4.1Z"/>
      <path d="M141.7,41.2l-.7.7c-.2-.2-.5-.5-.7-.7l.7-.7c.2.2.5.5.7.7Z"/>
      <path class="st10" d="M140.2,41.2c.2.2.4.5.7.7l-4.1,4.1h-1.4l4.8-4.8h0Z"/>
      <polygon points="137.8 136 136.2 136.8 135.8 137 135.2 137 135.2 136.2 135.5 136 136.2 136 137.8 136"/>
      <polygon points="136.2 136.8 136.2 137 135.8 137 136.2 136.8"/>
      <polygon points="136.2 135.7 136.2 136 135.5 136 136.2 135.7"/>
      <polygon points="136.2 127.8 136.2 135.7 135.5 136 135.2 136 135.2 127.2 136.2 126.7 136.2 127.8"/>
      <polygon points="136.2 118.8 136.2 126.7 135.2 127.2 135.2 119.3 136.2 118.8"/>
      <polygon points="136.2 117.7 136.2 118.8 135.2 119.3 135.2 109.2 136.2 108.7 136.2 109.8 136.2 117.7"/>
      <polygon points="136.2 100.8 136.2 108.7 135.2 109.2 135.2 101.3 136.2 100.8"/>
      <polygon points="136.2 99.7 136.2 100.8 135.2 101.3 135.2 92.3 136.2 91.8 136.2 99.7"/>
      <polygon points="136.2 90.7 136.2 91.8 135.2 92.3 135.2 91.2 136.2 90.7"/>
      <polygon points="136.2 82.8 136.2 90.7 135.2 91.2 135.2 82.2 136.2 81.7 136.2 82.8"/>
      <polygon points="136.2 73.8 136.2 81.7 135.2 82.2 135.2 74.3 136.2 73.8"/>
      <polygon points="136.2 72.7 136.2 73.8 135.2 74.3 135.2 64.2 136.2 63.7 136.2 64.8 136.2 72.7"/>
      <polygon points="136.2 56 136.2 63.7 135.2 64.2 135.2 56 136.2 56"/>
      <polygon points="135.8 137 135.2 137.3 135.2 137 135.8 137"/>
      <polygon points="135.5 136 135.2 136.2 135.2 136 135.5 136"/>
      <polygon points="135.5 46 134.5 47 127.2 47 127.2 55 135.2 55 135.2 56 126.2 56 126.2 46 135.5 46"/>
      <polygon points="135.2 136.2 135.2 137 118.2 137 118.2 145.3 126.9 154 126.2 154 126.2 154.7 117.2 145.7 117.2 136 135.2 136 135.2 136.2"/>
    </g>
    <g id="Bar">
      <g>
        <path class="st4" d="M759.9,331c-100.9-70.8-219.1-106.1-337.2-105.9-117.5.2-235,35.6-335.3,106.2,9.6,13.7,19.2,27.4,28.9,41.1,91.7-64.5,199.1-96.9,306.6-97.1,107.9-.2,216,32,308.2,96.7,9.6-13.7,19.3-27.4,28.9-41.1Z"/>
        <path class="st2" d="M803.3,267.8c-39.9,57-79.7,114.1-119.6,171.1,6.8,4.8,13.5,9.7,20,14.9,42.9-54.8,85.9-109.5,128.8-164.3-9.6-7.5-19.3-14.8-29.2-21.7Z"/>
        <path class="st2" d="M13.8,288.9c43,54.7,86,109.4,128.9,164.1,6.6-5.2,13.3-10.2,20.1-14.9-39.9-57-79.8-114-119.7-171-9.9,7-19.7,14.2-29.3,21.8Z"/>
        <path class="st2" d="M8.8,323c6-5.1,12.1-10.1,18.3-15,33.5,42.5,67,85,100.6,127.4-4.6,3.6-9.2,7.4-13.7,11.2-35.1-41.2-70.1-82.4-105.2-123.6Z"/>
        <path class="st2" d="M829.4,335.2c3.9,3.4,7.8,6.8,11.7,10.2-30.9,34.5-61.8,68.9-92.7,103.4-3.1-2.6-6.2-5.2-9.2-7.7,30.1-35.3,60.2-70.6,90.3-105.9Z"/>
        <path class="st2" d="M2.7,342c3.9-3.5,7.8-6.9,11.8-10.3,30.1,35.2,60.1,70.4,90.2,105.6-3,2.7-6,5.5-9,8.2-31-34.5-62-69-93-103.5h0Z"/>
        <path class="st7" d="M815.8,375.4c5.3,4.8,10.5,9.6,15.6,14.6l-35,36.2c-4.7-4.5-9.5-9-14.3-13.3,11.2-12.5,22.5-25,33.7-37.4h0Z"/>
        <path class="st6" d="M16.3,390c5.1-5,10.3-9.8,15.6-14.6,11.2,12.5,22.5,25,33.7,37.4-4.8,4.3-9.6,8.8-14.3,13.3l-35-36.2h0Z"/>
        <path class="st2" d="M817.7,310.6c6.1,4.9,12.2,9.8,18.2,14.9-35,41.2-70,82.5-105.1,123.8-4.5-3.8-9-7.5-13.6-11.1,33.5-42.5,67-85,100.4-127.5h0Z"/>
      </g>
    </g>
  </g>
  <g id="Fist">
    <g>
      <polygon points="491.2 213.1 499.9 290.2 499.9 290.3 473.8 349.5 479.4 413.2 458.6 413.2 458.6 412.2 478.3 412.2 478.2 411 478.3 411 472.8 349.1 498.9 290 498.8 289.1 498.9 288.8 497.8 278.8 490.6 215.7 491.2 213.1"/>
      <polygon points="497.8 278.8 498.9 288.8 498.8 289.1 490.5 216.1 483.6 246.5 483.6 246.5 490.6 215.7 497.8 278.8"/>
      <polygon points="498.8 289.1 498.9 290 472.8 349.1 472.8 348.2 472.8 348 498.8 289.1"/>
      <polygon points="490.5 216.1 498.8 289.1 472.8 348 472.8 348.2 472.8 349.1 472.8 349.2 472.8 349.3 478.2 411 459.6 411 452.7 332.8 462.5 340.4 480.7 284.7 480.7 284.6 478.7 258.9 482.4 252 482.4 251.9 483.2 248.6 483.7 246.5 483.6 246.5 483.6 246.5 490.5 216.1"/>
      <polygon points="492.2 208.6 491.2 213.1 490.8 210.1 491 209.3 469 201.7 464.1 205.7 464.2 205.6 464.2 205.4 463.9 204.6 468.8 200.5 492.2 208.6"/>
      <path d="M490.8,210.1l.3,3-.6,2.6v-.7c0,0-7.2,31.4-7.2,31.4h0c-.2-.1-.4-.3-.6-.4h0l8-35.9h0Z"/>
      <path d="M491,209.3l-.2.8-8,35.9c-1.4-.8-3.4-1.6-5.9-2.3l6.8-24.4-17.8-5.7-4.2,27.1c-1.1-.2-2.2-.3-3.3-.5l5.8-34.5,4.9-4.1,22,7.6h0Z"/>
      <polygon points="490.5 214.9 490.6 215.7 483.6 246.5 483.4 246.4 490.5 214.9"/>
      <path d="M483.7,219.2l-6.8,24.4c-.3,0-.6-.2-1-.3l6.6-23.5-15.8-5.1-4,26c-.3,0-.7-.1-1-.1l4.2-27.1,17.8,5.7h0Z"/>
      <polygon points="483.7 246.5 483.2 248.6 483.6 246.5 483.7 246.5"/>
      <polygon points="483.6 246.5 483.6 246.5 483.2 248.6 482.4 251.9 483.6 246.5 483.6 246.5"/>
      <polygon points="483.4 246.4 483.6 246.5 482.4 251.9 482.4 252 480.5 254.4 482.4 250.8 483.4 246.4"/>
      <path d="M483.4,246.4l-1,4.4-2,3.7-1.6,2,2.6-4.9h0s1-4.5,1-4.5l.2-1c.2.1.4.3.6.4h0s0,0,0,0Z"/>
      <polygon points="482.4 251.9 483.2 248.6 482.4 251.9 482.4 252 482.4 251.9"/>
      <path d="M482.8,246l-.2,1c-1.3-.9-3.4-1.6-5.9-2.4l.3-1c2.5.7,4.5,1.5,5.9,2.3h0Z"/>
      <path d="M482.5,247l-1,4.5-3.4,4.4c-.7-.2-2.1-.8-4.2-1.4l2.7-9.8c2.6.7,4.6,1.5,5.9,2.4h0Z"/>
      <path class="st13" d="M482.5,219.9l-6.6,23.5c-3.6-1-8.2-1.8-13.2-2.6l4-26,15.8,5.1Z"/>
      <polygon points="482.4 252 478.7 258.9 478.7 257.9 480.5 254.4 482.4 252"/>
      <path d="M481.5,251.5h0s-2.6,5-2.6,5l-.5.6h-.3c0-.1-.2-.2-.7-.4l.7-.8,3.4-4.4h0Z"/>
      <polygon points="478.7 258.9 480.7 284.6 480.7 284.7 462.5 340.4 452.7 332.8 452.7 332.7 462 339.9 479.7 285.7 477.8 260.7 478.7 258.9"/>
      <polygon points="480.5 254.4 478.7 257.9 478.7 258.9 477.8 260.7 477.6 258.8 478.9 256.4 480.5 254.4"/>
      <polygon class="st13" points="477.8 260.7 479.7 285.7 462 339.9 452.7 332.7 451.5 331.7 458.6 412.2 423.4 412.2 432.2 329.1 415.6 341.3 383.7 323.7 350.4 286.9 363.7 251.2 379.1 241.8 423 255.9 418.8 264.4 408.6 269.5 387.4 268.2 387 268.1 383.6 277.3 411.7 286.1 446.8 315.5 430.4 281 467.5 280.1 477.8 260.7"/>
      <polygon points="478.9 256.4 477.6 258.8 466.9 279.1 428.9 280 443.9 311.8 412.3 285.3 412.2 285.2 384.9 276.7 387.6 269.2 412.1 274 425.3 264.4 444.7 272.4 447 267.8 463.8 275.6 478.4 257 478.9 256.4"/>
      <path d="M478.4,257l-14.6,18.6-16.8-7.8.4-.9,16.1,7.5,13.9-17.7c.4.1.6.2.7.2h.3q0,.1,0,.1Z"/>
      <polygon points="472.8 349.1 478.3 411 478.2 411 472.8 349.3 472.8 349.2 472.8 349.1"/>
      <polygon points="478.2 411 478.3 412.2 458.6 412.2 451.5 331.7 452.7 332.7 452.7 332.8 459.6 411 478.2 411"/>
      <path d="M478.1,255.8l-.7.8c-.8-.3-2.2-.8-4-1.4l.3-.3.2-.6c2.1.7,3.6,1.2,4.2,1.4h0Z"/>
      <path d="M477.6,258.8l.2,1.9-10.3,19.4-37,.9,16.4,34.5-35-29.4-28.1-8.8,3.4-9.2h.4c0,0,21.2,1.4,21.2,1.4l10.2-5.1,4.2-8.5-43.9-14.1-15.4,9.4-13.3,35.8,33.3,36.8,31.9,17.6,16.5-12.1-8.7,83h35.1v1c0,0-35.2,0-35.2,0l-4.1,38.8-5.8-38.8h-49.1l2.8-68.8-35.8-52.5,21.9-43v1l.9-.5-21,41.3,35.1,53.4v.2l-2.7,68h18.5l1.6-60,27,10.7-3.3,14.5,5.2,34.8h8.1l8.5-80.9-15.2,11.2-32.7-18-33.7-37.3,13.6-36.6,16-9.8,45.5,14.6-4.9,9.8-10.7,5.4-13.8-.9,16.9,3.3,13-9.4-.2.6.7.3-13.3,9.6-24.4-4.8-2.7,7.5,27.3,8.6h0c0,0,31.6,26.5,31.6,26.5l-15-31.8,38-.9,10.8-20.3h0ZM419.1,444l3.2-30.9h-7.8l4.6,30.9ZM413.4,412.2l-5.2-34.9,3.2-13.8-24.9-9.9-1.5,58.5h28.4ZM336.4,297.5l-3.9-5.9h0c0,.1,3.9,5.9,3.9,5.9h0Z"/>
      <path d="M477.4,256.7l-13.9,17.7-16.1-7.5,8-16c1,.2,2,.4,3,.6l-4.2,13.6,7.7,2.9,11.3-12.7c1.9.6,3.3,1.1,4,1.4h0Z"/>
      <path d="M476.9,243.6l-.3,1c-.3,0-.6-.2-1-.3l.3-1c.3,0,.7.2,1,.3Z"/>
      <path d="M476.6,244.6l-2.7,9.8c-.3,0-.6-.2-1-.3l2.7-9.8c.3,0,.7.2,1,.3h0Z"/>
      <path d="M475.9,243.4l-.3,1c-3.6-1-8.1-1.8-13.2-2.5l.2-.5v-.5c5.1.8,9.7,1.6,13.3,2.6Z"/>
      <path d="M475.6,244.4l-2.7,9.8c-3.4-1-8-2.4-13.1-3.5l2.7-8.8c5,.8,9.6,1.6,13.2,2.5Z"/>
      <path d="M473.9,254.4l-.2.6-.3.3c-.3-.1-.7-.2-1-.3l.5-.5v-.4c.4.1.8.2,1.1.3h0Z"/>
      <path d="M473.4,255.3l-11.3,12.7-7.7-2.9,4.2-13.6c.3,0,.7.1,1,.2l-3.9,12.8,6.2,2.3,10.6-11.8c.4.1.7.2,1,.3h0Z"/>
      <path d="M472.9,254.1v.4c-.1,0-.6.5-.6.5-3.3-1-7.9-2.3-12.9-3.4l.3-1c5.2,1.1,9.8,2.4,13.1,3.5h0Z"/>
      <path class="st13" d="M472.4,255l-10.6,11.8-6.2-2.3,3.9-12.8c5,1.1,9.5,2.3,12.9,3.4h0Z"/>
      <path d="M463.9,204.6l.2.9h0c0,.1,0,.3,0,.3l-5.8,34.5c-.3,0-.7,0-1-.1l5.8-34.6v-.3s.8-.6.8-.6h0Z"/>
      <polygon points="460.5 191.9 463.9 204.6 463.2 205.2 463.2 205.5 459.8 192.9 438.7 191.2 433.6 200.4 433.6 200.3 433.7 200.1 433.1 199.2 438.1 190.1 460.5 191.9"/>
      <path d="M463.2,205.5l-5.8,34.6c-1.2-.1-2.4-.3-3.7-.5l4.4-29.3-19.4-2.8-1.6,30.5c-3.4-.3-6.8-.5-10-.8l6.4-36.8,5-9.2,21.1,1.7,3.4,12.6h0Z"/>
      <path d="M462.7,240.8v.5c0,0-.2.5-.2.5h-1c0-.1.2-.7.2-.7v-.4c.4,0,.7,0,1,.1h0Z"/>
      <path d="M462.5,241.8l-2.7,8.8c-.3,0-.7-.1-1-.2l2.7-8.8h1v.2Z"/>
      <path d="M461.7,240.7v.4c0,0-.2.6-.2.6-1.1-.1-2.2-.3-3.3-.5l.2-1c1.1.1,2.3.3,3.3.5h0Z"/>
      <path d="M461.5,241.6l-2.7,8.8c-.9-.2-1.9-.4-2.8-.5l1.2-2.4,1.1-6.4c1.1.1,2.2.3,3.3.5h0Z"/>
      <path d="M459.8,250.6l-.3,1c-.3,0-.7-.1-1-.2l.3-1c.3,0,.7.1,1,.2h0Z"/>
      <path d="M458.8,250.4l-.3,1c-1-.2-2-.4-3-.6l.5-1c1,.2,1.9.4,2.8.5h0Z"/>
      <path d="M458.4,240.2l-.2,1c-.3,0-.6,0-1-.1l.2-1c.3,0,.7,0,1,.1Z"/>
      <path d="M458.2,241.2l-1.1,6.4-1.2,2.4c-.3,0-.7-.1-1-.2l1.3-2.5,1-6.1c.3,0,.7,0,1,.1h0Z"/>
      <path d="M458.1,210.3l-4.4,29.3c-.3,0-.7,0-1-.1l4.3-28.4-17.3-2.5-1.6,29.4c-.3,0-.6,0-1,0l1.6-30.5,19.4,2.8h0Z"/>
      <path d="M457.4,240.1l-.2,1c-1.2-.1-2.4-.3-3.7-.4v-.5c0,0,.1-.5.1-.5,1.2.1,2.5.3,3.7.5h0Z"/>
      <path d="M457.2,241.1l-1,6.1-1.3,2.5c-.8-.1-1.6-.3-2.5-.4h0c0,0,1.1-8.7,1.1-8.7,1.2.1,2.5.3,3.7.4h0Z"/>
      <path class="st13" d="M457,211.1l-4.3,28.4c-4.8-.5-9.7-1-14.6-1.4l1.6-29.4,17.3,2.5Z"/>
      <path d="M456,249.9l-.5,1c-.3,0-.7-.1-1-.2l.5-1c.3,0,.7.1,1,.2h0Z"/>
      <path d="M455.5,250.9l-8,16-.4.9-.9-.4,8.3-16.7c.3,0,.7.1,1,.2h0Z"/>
      <path d="M454.9,249.7l-.5,1c-.8-.1-1.7-.3-2.5-.4l.6-1c.8.1,1.6.2,2.5.4h0Z"/>
      <path d="M454.4,250.7l-8.3,16.7-1.9,3.7-18.3-7.6,4.1-12.3c2-.7,4.1-1.1,6.3-1.4l-3.9,11.6,11.9,1.9,7.5-13.1c.8.1,1.7.2,2.5.4h0Z"/>
      <path d="M453.7,239.6v.5c0,0-.1.5-.1.5-.3,0-.7,0-1-.1v-.5c0,0,.1-.5.1-.5.3,0,.7,0,1,.1h0Z"/>
      <path d="M453.6,240.6l-1.1,8.6h0c-.3,0-.7,0-1.1,0l.2-.4,1-8.3c.3,0,.7,0,1,.1Z"/>
      <path d="M452.7,239.5v.5c0,0-.1.5-.1.5-4.7-.5-9.6-1-14.5-1.4v-1c4.9.4,9.9.9,14.6,1.4h0Z"/>
      <path d="M452.6,240.5l-1,8.3-.2.4c-3.2-.4-6.4-.7-9.5-.7s-2.9,0-4.3.2l.5-9.6c4.9.4,9.8.9,14.5,1.4h0Z"/>
      <path d="M452.5,249.4l-.6,1c-.4,0-.7,0-1.1-.1l.6-1c.4,0,.7,0,1.1.1Z"/>
      <path d="M451.9,250.3l-7.5,13.1-11.9-1.9,3.9-11.6c.4,0,.7,0,1.1-.1l-3.6,11,10.1,1.6,7-12.1c.4,0,.7,0,1.1.1h0Z"/>
      <path d="M451.4,249.2l-.6,1c-4.5-.6-9.1-.8-13.4-.4v-.3c.1,0,.1-.7.1-.7,1.4-.1,2.9-.2,4.3-.2,3.1,0,6.3.2,9.5.7h0Z"/>
      <path class="st13" d="M450.8,250.2l-7,12.1-10.1-1.6,3.6-11c4.2-.4,8.9-.1,13.4.4h0Z"/>
      <path d="M447,267.8l-2.3,4.6-19.4-8,.2-.2-.6-.8h-.1c0,0,4.2-12.3,4.2-12.3l.6.2h.2c0,0,.1-.1.2-.1l-4.1,12.3,18.3,7.6,1.9-3.7.9.4Z"/>
      <path d="M438.2,238.1v1c-.4,0-.7,0-1,0v-1c.4,0,.7,0,1,0h0Z"/>
      <path d="M438.1,239.1l-.5,9.6c-.3,0-.7,0-1,.1l.5-9.8c.3,0,.7,0,1,0Z"/>
      <path class="st10" d="M437.6,248.7v.7s-.1.3-.1.3c-.4,0-.7,0-1.1.1l.2-.7v-.4c.3,0,.7,0,1-.1h0Z"/>
      <path d="M437.2,238v1c-3.5-.3-6.9-.5-10.2-.8l.2-1c3.2.2,6.6.5,10,.8h0Z"/>
      <path d="M437.1,239l-.5,9.8c-2.5.3-4.8.7-6.9,1.5h0l-.5-.2-4-1.5,1.8-10.4c3.3.2,6.7.5,10.1.8h0Z"/>
      <path d="M436.6,248.8v.4s-.2.7-.2.7c-2.2.2-4.4.7-6.3,1.4l.2-.7-.6-.2c2.1-.7,4.5-1.2,6.9-1.5Z"/>
      <path d="M433.1,199.2l.5,1v.2s0,0,0,0l-6.5,36.8c-.3,0-.7,0-1,0l6.5-37.2.4-.8h0Z"/>
      <path d="M429.2,191.9l3.9,7.3-.4.8-6.5,37.2h0l6.5-36.9-4-7.4h-33.5l-3.8,5.9-.3-1.4,3.5-5.5h34.6Z"/>
      <path d="M428.6,192.9l4,7.4-6.5,36.9c-.1,0-.2,0-.4,0l2.6-31.3-23.7-1.8,1.3,32c-3.6-.2-6.1-.2-7.1-.3l-7.5-36.9,3.8-5.9h33.5Z"/>
      <polygon points="430.9 331.3 422.4 412.2 414.4 412.2 409.2 377.4 412.6 362.9 385.5 352.2 384 412.2 365.5 412.2 368.2 344.2 368.2 344 333.1 290.6 354.1 249.4 376.5 235.5 398.9 240 399 240 424 249.4 424.4 249.5 425 249.7 425 249.7 429 251.1 424.9 263.5 411.9 272.9 395 269.6 408.8 270.5 419.5 265.2 424.4 255.3 379 240.7 362.9 250.5 349.3 287.1 383 324.5 415.7 342.5 430.9 331.3"/>
      <path d="M430.3,250.5l-.2.7c0,0-.1,0-.2,0h-.2c0,0-.6-.2-.6-.2l-4-1.5.2-1,4,1.4.5.2h0l.6.2h0Z"/>
      <polygon points="429.2 250.1 425.2 248.7 425.2 248.6 429.2 250.1"/>
      <polygon points="429 251.1 425 249.7 425 249.6 429 251.1"/>
      <path d="M428.4,205.9l-2.6,31.3c-.3,0-.7,0-1,0l2.5-30.3-21.6-1.7,1.2,30.6,16.6,1.2c-6.9-.4-13.1-.8-17.6-1l-1.3-32,23.7,1.8Z"/>
      <path class="st13" d="M427.4,206.8l-2.5,30.3c-.1,0-.3,0-.4,0h-.8c0,0-16.6-1.3-16.6-1.3l-1.2-30.6,21.6,1.7Z"/>
      <path d="M427.2,237.2l-.2,1c-.3,0-.7,0-1,0l.2-1c.3,0,.7,0,1,0Z"/>
      <path d="M427,238.2l-1.8,10.4h0l-.9-.4,1.8-10.1c.3,0,.7,0,1,0h0Z"/>
      <path d="M426.2,237.2l-.2,1h0l.2-1h0Z"/>
      <path d="M426.2,237.2l-.2,1c0,0-.2,0-.3,0h0v-1c.2,0,.3,0,.4,0h0Z"/>
      <polygon points="426 238.2 424.2 248.3 424.2 248.3 426 238.2 426 238.2"/>
      <path d="M426,238.2l-1.8,10.1-24.7-9.2-.5-2.4c2.7.1,13.5.5,26.7,1.4,0,0,.2,0,.3,0h0Z"/>
      <path d="M425.8,237.1v1c0,0-19.8-1.5-19.8-1.5v-.7c4.5.2,10.6.5,17.6,1h.8c0,0,.4,0,.4,0h0c.3,0,.7,0,1,0h0Z"/>
      <path d="M425.7,238.1h0c-13.1-.9-24-1.3-26.7-1.4l-.2-1c1,0,3.5.1,7.1.3v.7s19.7,1.5,19.7,1.5Z"/>
      <polygon points="425 263.4 425.6 264.2 425.3 264.4 424.7 264.1 424.9 263.5 425 263.4"/>
      <polygon points="425.2 248.6 425.2 248.7 425.2 248.6 425.2 248.6"/>
      <polygon points="425.2 248.6 425.2 248.7 425 249.6 424.1 249.3 424.2 248.3 424.2 248.3 425.2 248.6"/>
      <polygon points="425 249.6 425 249.7 424.4 249.5 424 249.4 424.1 249.3 425 249.6"/>
      <polygon points="425 249.7 425 249.7 424.4 249.5 425 249.7"/>
      <path d="M424.8,237.1h-.4c.1,0,.3,0,.4,0Z"/>
      <polygon points="424.2 248.3 424.1 249.3 399 240 399.7 240.1 399.5 239.1 424.2 248.3 424.2 248.3"/>
      <polygon points="424.2 248.3 424.2 248.3 399.5 239.1 424.2 248.3"/>
      <polygon points="424.1 249.3 424 249.4 399 240 424.1 249.3"/>
      <polygon class="st13" points="408.2 377.3 413.4 412.2 385 412.2 386.5 353.6 411.4 363.5 408.2 377.3"/>
      <path d="M399.5,239.1l.2,1-.8-.2h-.3c0-.1-.2-1.1-.2-1.1h0l-.6-3.1h.6c0,0,.2,0,.4,0l.2,1,.5,2.4h0Z"/>
      <polygon points="398.9 240 376.5 235.5 354.1 249.4 354.2 249.2 353.3 248.8 353.2 248.9 353.2 209.5 389.9 191.6 391 197.4 390.3 198.6 389.2 193.1 354.2 210.1 354.2 248.1 376.3 234.5 398.5 238.9 398.7 239.9 398.9 240"/>
      <path d="M391.3,198.8l7.5,36.9c-.2,0-.3,0-.4,0h-.6s-7.6-37.1-7.6-37.1l.8-1.2.3,1.4h0Z"/>
      <polygon points="397.8 235.7 398.5 238.8 390.3 198.6 397.8 235.7"/>
      <path d="M398.5,238.8h0l-22.1-4.4-22.1,13.7v-38l34.9-17,1.1,5.5,8.2,40.2ZM392.5,233l-5.2-23.9-16.6,7.4,3.7,16.5h18.2,0Z"/>
      <path d="M387.3,209.1l5.2,23.9h-18.2l-3.7-16.5,16.6-7.4h0ZM391.3,232l-4.7-21.5-14.8,6.6,3.3,14.9h16.2,0Z"/>
      <polygon class="st13" points="386.5 210.5 391.3 232 375.1 232 371.8 217.1 386.5 210.5"/>
      <polygon points="354.2 249.2 354.1 249.4 353.2 249.9 353.2 248.9 353.3 248.8 354.2 249.2"/>
    </g>
    <path class="st12" d="M493.5,229.6l6,50.4-29.9-4,8.4-17.2,4.1-7.3s2.5-17,4.9-21.7c.4-.7,1.2-1.1,2-1,1.5.2,4.3.6,4.5.7h0Z"/>
    <line class="st5" x1="480.4" y1="278" x2="469" y2="276.4"/>
  </g>
  <g id="Name">
    <g>
      <g>
        <path d="M748.2,411v217.2l-.7-.2-291.5-97.2c-20.9-7-43.9-7-64.7,0l-292.1,97.4v-217.2h649,0ZM747.2,626.8v-214.8H100.2v214.8l290.8-96.9c10.5-3.5,21.6-5.3,32.7-5.3s22.1,1.8,32.7,5.3l290.8,96.9Z"/>
        <path class="st13" d="M747.2,412v214.8l-290.8-96.9c-10.5-3.5-21.6-5.3-32.7-5.3s-22.1,1.8-32.7,5.3l-290.8,96.9v-214.8h647ZM738.9,418v-.5H107.9l-.5,197.3v.7l284-90.8c20.3-6.5,42.6-6.5,62.9,0l284,90.8.5-197.5h0Z"/>
        <path d="M738.9,417.5v.5l-.5,197.5-284-90.8c-20.3-6.5-42.6-6.5-62.9,0l-284,90.8v-.7l.5-197.3h631,0ZM737.4,614.2l.5-195.7H108.9l-.5,195.6,282.7-90.4c10.2-3.3,21-4.9,31.8-4.9s21.5,1.6,31.8,4.9l282.7,90.4h0Z"/>
        <path class="st9" d="M737.9,418.5l-.5,195.7-282.7-90.4c-10.2-3.3-21-4.9-31.8-4.9s-21.5,1.6-31.8,4.9l-282.7,90.4.5-195.6h629Z"/>
      </g>
      <g>
        <path class="st8" d="M748.2,628.2l-.7-.2-291.5-97.2c-20.9-7-43.9-7-64.7,0l-292.1,97.4v-217.2h649v217.2h0Z"/>
        <path class="st8" d="M423.7,524.6c11.1,0,22.1,1.8,32.7,5.3l290.8,96.9v-214.8H100.2v214.8l290.8-96.9c10.5-3.5,21.6-5.3,32.7-5.3Z"/>
        <path class="st8" d="M107.4,615.5v-.7l.5-197.3h631v.5l-.5,197.5-284-90.8c-20.3-6.5-42.6-6.5-62.9,0l-284,90.8h0Z"/>
        <path class="st8" d="M422.9,518.8c10.8,0,21.5,1.6,31.8,4.9l282.7,90.4.5-195.7H108.9l-.5,195.6,282.7-90.4c10.2-3.3,21-4.9,31.8-4.9Z"/>
      </g>
    </g>
  </g>
  <g id="BattleGround">
    <g>
      <path d="M732.4,492.6v86.6l-7.7,14.8h-41.2l-3.9-7.3h-.9v-103.2h2.7l-1.8-3.4h-.9v-57.1h41.9l8,15.3v.9l3.9,7.3v40.9h-2.7l2.7,5.1h0ZM731.9,579.1v-86.4l-3-5.7h3v-40.3l-3.9-7.3v-.9l-7.8-14.9h-41.1v56.1h.7l2.3,4.3h-3v102.2h.7l3.9,7.3h40.6l7.5-14.4Z"/>
      <path d="M731.9,492.7v86.4l-7.5,14.4h-40.6l-3.9-7.3h-.7v-102.2h3l-2.3-4.3h-.7v-56.1h41.1l7.8,14.9v.9l3.9,7.3v40.3h-3l3,5.7ZM731.4,578.9v-86.1l-3.4-6.3h3.4v-39.7l-3.9-7.3v-.9l-7.6-14.5h-40.3v55.1h.5l2.8,5.4h-3.4v101.2h.5l3.9,7.3h40l7.3-14.1h0Z"/>
      <polygon points="731.4 492.8 731.4 578.9 724.1 593 684.1 593 680.2 585.7 679.7 585.7 679.7 583.7 680.2 583.7 720 583.7 727 570.2 727 486.5 728.1 486.5 731.4 492.8"/>
      <polygon points="731.4 446.8 731.4 486.5 728.1 486.5 727 486.5 708.3 486.5 707.7 486.5 707.7 484.5 711.1 484.5 708.3 479.1 707.7 479.1 707.7 477.1 708.3 477.1 727 477.1 727 439.4 727.5 439.4 731.4 446.8"/>
      <polygon points="727.5 438.5 727.5 439.4 727 439.4 727 439.4 720 426 680.2 426 680.2 477.1 699 477.1 699 462.5 708.3 462.5 708.3 477.1 707.7 477.1 707.7 471.8 703.5 471.8 703.5 486.5 700.1 486.5 699 486.5 680.2 486.5 680.2 583.7 679.7 583.7 679.7 484.5 683 484.5 680.2 479.1 679.7 479.1 679.7 424 720 424 727.5 438.5"/>
      <path d="M727,486.5v83.8l-7,13.4h-39.7v-97.2h18.8v60.7h9.3v-60.7h18.6,0ZM726.5,570.1v-83.2h-17.6v60.7h-10.3v-60.7h-17.8v96.2h38.9l6.8-13.1h0Z"/>
      <path d="M727,439.4v37.7h-18.6v-14.7h-9.3v14.7h-18.8v-51.2h39.7l7,13.4h0ZM726.5,476.6v-37.1l-6.8-13.1h-38.9v50.2h17.8v-14.7h10.3v14.7h17.6,0Z"/>
      <path d="M726.5,487v83.2l-6.8,13.1h-38.9v-96.2h17.8v60.7h10.3v-60.7h17.6,0ZM726,570v-82.5h-16.6v60.7h-11.3v-60.7h-16.8v95.2h38.1l6.6-12.7h0Z"/>
      <path d="M726.5,439.5v37.1h-17.6v-14.7h-10.3v14.7h-17.8v-50.2h38.9l6.8,13.1h0ZM726,476.1v-36.5l-6.6-12.7h-38.1v49.2h16.8v-14.7h11.3v14.7h16.6,0Z"/>
      <polygon class="st13" points="726 487.5 726 570 719.3 582.7 681.2 582.7 681.2 487.5 698 487.5 698 548.2 709.3 548.2 709.3 487.5 726 487.5"/>
      <polygon class="st13" points="726 439.6 726 476.1 709.3 476.1 709.3 461.5 698 461.5 698 476.1 681.2 476.1 681.2 427 719.3 427 726 439.6"/>
      <path d="M708.3,479.1l2.8,5.4h-3.4v60.7h-4.3v-52.4l-3.4-6.3h3.4v-14.7h4.3v7.3h.5,0ZM710.3,484l-2.3-4.3h-.7v-7.3h-3.3v14.7h-3l3,5.7v52h3.3v-60.7h3Z"/>
      <path d="M708,479.6l2.3,4.3h-3v60.7h-3.3v-52l-3-5.7h3v-14.7h3.3v7.3h.7ZM709.5,483.5l-1.8-3.4h-.9v-7.3h-2.3v14.7h-2.7l2.7,5.1v51.6h2.3v-60.7h2.7Z"/>
      <polygon points="708.3 486.5 708.3 547.2 699 547.2 699 486.5 700.1 486.5 703.5 492.8 703.5 545.2 707.7 545.2 707.7 486.5 708.3 486.5"/>
      <path d="M672.7,484.4v89.6h-19.3l-3.6-6.5h-.9v-91.2h2.5l-1.6-2.8h-.9v-6.5h-2v12.9h-2.5l2.5,4.4v89.6h-19.4l-3.6-6.5h-.9v-91.2h2.5l-1.6-2.8h-.9v-50.5h38.9l7.2,13.1v.8l3.6,6.5v36.6h-2.5l2.5,4.4h0ZM672.2,573.5v-89l-2.8-5h2.8v-36l-3.6-6.5v-.8l-7-12.7h-38.1v49.5h.7l2.1,3.8h-2.8v90.2h.7l3.6,6.5h18.6v-89l-2.8-5h2.8v-12.9h3v6.5h.7l2.1,3.8h-2.8v90.2h.7l3.6,6.5h18.5Z"/>
      <path d="M672.2,484.5v89h-18.5l-3.6-6.5h-.7v-90.2h2.8l-2.1-3.8h-.7v-6.5h-3v12.9h-2.8l2.8,5v89h-18.6l-3.6-6.5h-.7v-90.2h2.8l-2.1-3.8h-.7v-49.5h38.1l7,12.7v.8l3.6,6.5v36h-2.8l2.8,5h0ZM671.7,573v-88.3l-3.2-5.7h3.2v-35.4l-3.6-6.5v-.8l-6.8-12.4h-37.3v48.5h.5l2.7,4.8h-3.2v89.2h.5l3.6,6.5h17.8v-88.3l-3.2-5.7h3.2v-12.9h4v6.5h.5l2.7,4.8h-3.2v89.2h.5l3.6,6.5h17.7Z"/>
      <polygon points="671.7 484.7 671.7 573 654 573 650.4 566.5 650 566.5 650 564.9 650.4 564.9 667.7 564.9 667.7 479 668.6 479 671.7 484.7"/>
      <polygon points="671.7 443.6 671.7 479 668.6 479 667.7 479 650.4 479 650.4 564.9 650 564.9 650 477.4 653.1 477.4 650.4 472.5 650 472.5 650 470.9 650.4 470.9 667.7 470.9 667.7 437.2 668.1 437.2 671.7 443.6"/>
      <polygon points="668.1 436.4 668.1 437.2 667.7 437.2 667.7 437.1 661.4 425.6 624.5 425.6 624.5 470.9 641.9 470.9 641.9 458 650.4 458 650.4 470.9 650 470.9 650 466 645.9 466 645.9 479 642.8 479 641.9 479 624.5 479 624.5 564.9 624.1 564.9 624.1 477.4 627.2 477.4 624.5 472.5 624.1 472.5 624.1 424 661.4 424 668.1 436.4"/>
      <path d="M667.7,479v85.9h-17.2v-85.9h17.2ZM667.2,564.4v-84.9h-16.2v84.9h16.2Z"/>
      <path d="M667.7,437.2v33.7h-17.2v-12.9h-8.5v12.9h-17.4v-45.3h36.9l6.2,11.5h0ZM667.2,470.4v-33.1l-6-11.1h-36.1v44.3h16.4v-12.9h9.5v12.9h16.2Z"/>
      <path d="M667.2,479.5v84.9h-16.2v-84.9h16.2ZM666.7,563.9v-83.9h-15.2v83.9h15.2Z"/>
      <path d="M667.2,437.2v33.2h-16.2v-12.9h-9.5v12.9h-16.4v-44.3h36.1l6,11.1h0ZM666.7,469.9v-32.5l-5.8-10.7h-35.3v43.3h15.4v-12.9h10.5v12.9h15.2,0Z"/>
      <rect class="st13" x="651.4" y="480" width="15.2" height="83.9"/>
      <polygon class="st13" points="666.7 437.4 666.7 469.9 651.4 469.9 651.4 457 640.9 457 640.9 469.9 625.5 469.9 625.5 426.6 660.8 426.6 666.7 437.4"/>
      <polygon points="645.9 484.7 645.9 573 628.1 573 624.5 566.5 624.1 566.5 624.1 564.9 624.5 564.9 641.9 564.9 641.9 479 642.8 479 645.9 484.7"/>
      <path d="M641.9,479v85.9h-17.4v-85.9h17.4ZM641.4,564.4v-84.9h-16.4v84.9h16.4Z"/>
      <path d="M641.4,479.5v84.9h-16.4v-84.9h16.4ZM640.9,563.9v-83.9h-15.4v83.9h15.4Z"/>
      <rect class="st13" x="625.5" y="480" width="15.4" height="83.9"/>
      <path d="M617.9,479.9v83h-33.2l-3.1-6h-.4l-6.2-12.2v-72.4h2.1l-1.3-2.6h-.8v-46.9h17.6v1.5l3.1,6v45.4h-2.1l2.1,4.1v42.2h1.6v-49.6h2.1l-1.3-2.6h-.8v-46.9h17.5v1.5l3.1,6v45.4h-2.1l2.1,4.1h0ZM617.4,562.5v-82.4l-2.4-4.7h2.4v-44.8l-3.1-6v-1.1h-16.5v45.9h.6l1.8,3.6h-2.4v49.6h-2.6v-42.5l-2.4-4.7h2.4v-44.8l-3.1-6v-1.1h-16.6v45.9h.6l1.8,3.6h-2.4v71.7l6,11.8h.4l3.1,6h32.4,0Z"/>
      <path d="M617.4,480.1v82.4h-32.4l-3.1-6h-.4l-6-11.8v-71.7h2.4l-1.8-3.6h-.6v-45.9h16.6v1.1l3.1,6v44.8h-2.4l2.4,4.7v42.5h2.6v-49.6h2.4l-1.8-3.6h-.6v-45.9h16.5v1.1l3.1,6v44.8h-2.4l2.4,4.7h0ZM616.9,562v-81.8l-2.7-5.3h2.7v-44.1l-3.1-6v-.8h-15.5v44.9h.4l2.3,4.6h-2.7v49.6h-3.6v-42.9l-2.7-5.3h2.7v-44.1l-3.1-6v-.8h-15.6v44.9h.4l2.3,4.6h-2.7v71.1l5.8,11.4h.4l3.1,6h31.6Z"/>
      <polygon points="616.9 480.2 616.9 562 585.3 562 582.2 556 581.8 556 576 544.6 576 543.9 576.3 543.9 581.7 554.6 613.5 554.6 613.5 474.9 614.2 474.9 616.9 480.2"/>
      <path d="M616.9,430.7v44.1h-18.6v-1.4h2.7l-2.3-4.6h-.4v-44.9h15.5v.8l3.1,6ZM613.5,467.5v-42h-15v42h15Z"/>
      <path d="M613.5,474.9v79.7h-31.9l-5.4-10.7v-69h15.1v49.6h7.2v-49.6h15ZM613,554.1v-78.7h-14v49.6h-8.2v-49.6h-14.1v68.4l5.2,10.3h31.1Z"/>
      <path d="M613.5,425.4v42h-15v-42h15ZM613,467v-41h-14v41h14Z"/>
      <path d="M613,475.4v78.7h-31.1l-5.2-10.3v-68.4h14.1v49.6h8.2v-49.6h14ZM612.5,553.6v-77.7h-13v49.6h-9.2v-49.6h-13.1v67.8l5,9.9h30.3Z"/>
      <path d="M613,425.9v41h-14v-41h14ZM612.5,466.5v-40h-13v40h13Z"/>
      <polygon class="st13" points="612.5 475.9 612.5 553.6 582.3 553.6 577.3 543.6 577.3 475.9 590.4 475.9 590.4 525.5 599.6 525.5 599.6 475.9 612.5 475.9"/>
      <rect class="st13" x="599.6" y="426.4" width="13" height="40"/>
      <polygon points="598.6 474.9 598.6 524.5 591.4 524.5 591.4 474.9 592 474.9 594.7 480.2 594.7 523.1 598.3 523.1 598.3 474.9 598.6 474.9"/>
      <path d="M594.7,430.7v44.1h-18.4v69h-.2v-70.4h2.7l-2.3-4.6h-.4v-44.9h15.6v.8l3.1,6h0ZM591.4,467.5v-42h-15.1v42h15.1Z"/>
      <path d="M591.4,425.4v42h-15.1v-42h15.1ZM590.9,467v-41h-14.1v41h14.1Z"/>
      <path d="M590.9,425.9v41h-14.1v-41h14.1ZM590.4,466.5v-40h-13.1v40h13.1Z"/>
      <rect class="st13" x="577.3" y="426.4" width="13.1" height="40"/>
      <path d="M569,473v65.1h0c0,.1-5.8,10.8-5.8,10.8h-26.8l-3-5.5h-.4l-6.1-11.2v-66.2h2l-1.2-2.3h-.8v-31.8l6.1-11.2h27l6.1,11.2v.7l3,5.5v31.1h-2l2,3.7h0ZM568.5,538v-64.9l-2.4-4.3h2.4v-30.5l-3-5.5v-.7l-5.9-10.8h-26.4l-5.9,10.8v31.2h.6l1.8,3.3h-2.4v65.5l5.9,10.8h.4l3,5.5h26.2l5.7-10.4h0Z"/>
      <path d="M568.5,473.2v64.9l-5.7,10.4h-26.2l-3-5.5h-.4l-5.9-10.8v-65.5h2.4l-1.8-3.3h-.6v-31.1l5.9-10.8h26.4l5.9,10.8v.7l3,5.5v30.5h-2.4l2.4,4.3h0ZM568,537.9v-64.6l-2.7-4.9h2.7v-29.8l-3-5.5v-.7l-5.7-10.4h-25.8l-5.7,10.4v30.5h.4l2.3,4.3h-2.7v64.9l5.7,10.4h.4l3,5.5h25.6l5.5-10.1h0Z"/>
      <polygon points="568 473.3 568 537.9 562.5 548 536.9 548 533.9 542.5 533.5 542.5 527.9 532.1 527.9 531.5 528.1 531.5 533.4 541.3 559.4 541.3 564.8 531.5 564.8 468.4 565.3 468.4 568 473.3"/>
      <polygon points="568 438.6 568 468.4 565.3 468.4 564.8 468.4 550 468.4 549.8 468.4 549.8 467.2 552.5 467.2 550.1 462.9 549.8 462.9 549.8 461.7 550 461.7 564.8 461.7 564.8 433.1 565 433.1 568 438.6"/>
      <polygon points="565 432.4 565 433.1 564.8 433.1 564.8 433 559.4 423.2 533.4 423.2 528.1 433 528.1 461.7 542.9 461.7 542.9 450.8 550 450.8 550 461.7 549.8 461.7 549.8 457.5 546.2 457.5 546.2 468.4 543.5 468.4 542.9 468.4 528.1 468.4 528.1 531.5 527.9 531.5 527.9 467.2 530.6 467.2 528.2 462.9 527.9 462.9 527.9 432.4 533.5 422 559.3 422 565 432.4"/>
      <path d="M564.8,468.4v63.1l-5.3,9.8h-26l-5.3-9.8v-63.1h14.8v45.4h7.1v-45.4h14.8ZM564.3,531.4v-62.5h-13.8v45.4h-8.1v-45.4h-13.9v62.5l5.1,9.4h25.4l5.1-9.4Z"/>
      <path d="M564.8,433.1v28.6h-14.8v-11h-7.1v11h-14.8v-28.7l5.3-9.8h26l5.3,9.8h0ZM564.3,461.2v-28.1l-5.1-9.4h-25.4l-5.1,9.4v28.1h13.9v-11h8.1v11h13.8Z"/>
      <path d="M564.3,468.9v62.5l-5.1,9.4h-25.4l-5.1-9.4v-62.5h13.9v45.4h8.1v-45.4h13.8ZM563.8,531.2v-61.8h-12.8v45.4h-9.1v-45.4h-12.8v61.8l4.9,9h24.8l4.9-9h0Z"/>
      <path d="M564.3,433.1v28.1h-13.8v-11h-8.1v11h-13.9v-28.1l5.1-9.4h25.4l5.1,9.4ZM563.8,460.7v-27.4l-4.9-9h-24.8l-4.9,9v27.4h12.8v-11h9.1v11h12.8,0Z"/>
      <polygon class="st13" points="563.8 469.4 563.8 531.2 558.8 540.3 534 540.3 529.1 531.2 529.1 469.4 541.9 469.4 541.9 514.8 551 514.8 551 469.4 563.8 469.4"/>
      <polygon class="st13" points="563.8 433.3 563.8 460.7 551 460.7 551 449.8 541.9 449.8 541.9 460.7 529.1 460.7 529.1 433.3 534 424.2 558.8 424.2 563.8 433.3"/>
      <path d="M550.1,462.9l2.4,4.3h-2.7v45.3h-3.6v-39.2l-2.7-4.9h2.7v-11h3.6v5.5h.4ZM551.6,466.7l-1.8-3.3h-.6v-5.5h-2.6v10.9h-2.4l2.4,4.3v38.8h2.6v-45.3h2.4Z"/>
      <path d="M549.8,463.4l1.8,3.3h-2.4v45.3h-2.6v-38.8l-2.4-4.3h2.4v-11h2.6v5.5h.6ZM550.8,466.2l-1.2-2.3h-.8v-5.5h-1.6v10.9h-2l2,3.7v38.5h1.6v-45.3h2Z"/>
      <polygon points="550 468.4 550 513.8 542.9 513.8 542.9 468.4 543.5 468.4 546.2 473.3 546.2 512.5 549.8 512.5 549.8 468.4 550 468.4"/>
      <path d="M516.7,498.2l6.6,33.8h-15.3l-2.7-4.7h-.5l-3.3-16v20.8h-14.8l-2.7-4.7h-.7v-67.1h1.8l-1-1.8h-.7v-37.3h29.5l5.4,9.9v.4l2.7,4.9v26.9h-1.8l1.8,3.1v20c-1.1,4.3-2.5,8.4-4.2,12.1h0ZM522.7,531.5l-6.5-33.4c1.7-3.8,3.1-7.8,4.2-12.2v-19.7l-2.1-3.7h2.1v-26.2l-2.7-4.9v-.4l-5.2-9.5h-28.7v36.3h.5l1.6,2.8h-2.1v66.1h.5l2.7,4.7h14v-25.2l4.2,20.5h.4l2.7,4.7h14.4,0Z"/>
      <path d="M516.2,498.1l6.5,33.4h-14.4l-2.7-4.7h-.4l-4.2-20.5v25.2h-14l-2.7-4.7h-.5v-66.1h2.1l-1.6-2.8h-.5v-36.3h28.7l5.2,9.5v.4l2.7,4.9v26.2h-2.1l2.1,3.7v19.7c-1.1,4.3-2.5,8.4-4.2,12.2h0ZM522.1,531l-6.4-32.9h0c1.7-3.8,3-7.9,4.2-12.2v-19.5l-2.5-4.3h2.5v-25.6l-2.7-4.9v-.4l-5-9.1h-27.9v35.3h.3l2.2,3.8h-2.5v65.1h.3l2.7,4.7h13.2v-29.6l4.9,24,.2.9h.3l2.7,4.7h13.5Z"/>
      <path d="M515.7,498.1l6.4,32.9h-13.5l-2.7-4.7h-.3l-.2-.9h13.8s-6.4-32.8-6.4-32.8c.8-1.8,1.6-3.7,2.3-5.7.7-2,1.4-4.1,2-6.3v-18.6h.3l2.5,4.3v19.5c-1.1,4.3-2.5,8.3-4.2,12h0q0,.1,0,.1Z"/>
      <polygon points="519.9 436.4 519.9 462 517.4 462 517.1 462 503.8 462 503.7 462 503.7 461.1 506.2 461.1 504 457.3 503.7 457.3 503.7 456.4 503.8 456.4 517.1 456.4 517.1 431.6 517.2 431.5 519.9 436.4"/>
      <path d="M512.8,492.6l6.4,32.8h-13.8l-7.3-35.5,5.7-18v-9.8h13.3v18.6c-.6,2.2-1.2,4.3-2,6.3-.7,1.9-1.5,3.8-2.3,5.7ZM518.6,524.8l-6.3-32.3c.8-1.9,1.6-3.8,2.4-5.8s1.4-4,1.9-6.2v-17.9h-12.3v9.3l-5.6,17.9,7.2,35h12.8Z"/>
      <path d="M512.3,492.5l6.3,32.3h-12.8l-7.2-35,5.6-17.9v-9.3h12.3v17.9c-.6,2.2-1.2,4.2-1.9,6.2s-1.5,3.9-2.4,5.8h0ZM518,524.3l-6.2-31.9h0c.8-2,1.6-3.9,2.3-5.9.7-1.9,1.3-4,1.9-6.1v-17.4h-11.3v9s-5.6,17.8-5.6,17.8l7,34.5h11.8Z"/>
      <path class="st13" d="M511.8,492.4l6.2,31.9h-11.8l-7-34.5,5.6-17.8v-9h11.3v17.4c-.5,2.1-1.2,4.2-1.9,6.1-.7,2-1.5,3.9-2.3,5.8h0Z"/>
      <path d="M517.2,431.1v.4h0s-4.8-8.6-4.8-8.6h-28v33.5h13.3v-9.5h6.2v9.5h0v-3.8h-3.3v9.5h-2.5l2.5,4.3v15.5l3.2-10.6v-9.2h.1v9.8l-5.7,18,7.3,35.5h0l-4.9-23.9v29.6h-13.2l-2.7-4.7h-.3v-65.1h2.5l-2.2-3.8h-.3v-35.3h27.9l5,9.1h0ZM497.7,525.3v-63.3h-13.3v63.3h13.3Z"/>
      <path d="M517.1,431.6v24.8h-13.3v-9.5h-6.2v9.5h-13.3v-33.5h28l4.8,8.7h0ZM516.6,455.9v-24.2l-4.5-8.3h-27.2v32.5h12.3v-9.5h7.2v9.5h12.3,0Z"/>
      <path d="M516.6,431.7v24.2h-12.3v-9.5h-7.2v9.5h-12.3v-32.5h27.2l4.5,8.3h0ZM516.1,455.4v-23.5l-4.3-7.9h-26.4v31.5h11.3v-9.5h8.2v9.5h11.3Z"/>
      <polygon class="st13" points="516.1 431.9 516.1 455.4 504.8 455.4 504.8 445.9 496.7 445.9 496.7 455.4 485.4 455.4 485.4 423.9 511.8 423.9 516.1 431.9"/>
      <path d="M504,457.3l2.2,3.8h-2.5v10.2s-3.3,10.6-3.3,10.6v-15.5l-2.5-4.3h2.5v-9.5h3.3v4.7h.3ZM505.3,460.6l-1.6-2.8h-.5v-4.7h-2.3v9.5h-2.1l2.1,3.7v12.3l2.3-7.4v-10.5h2.1Z"/>
      <path d="M503.7,457.8l1.6,2.8h-2.1v10.5l-2.3,7.4v-12.3l-2.1-3.7h2.1v-9.5h2.3v4.7h.5ZM504.5,460.1l-1-1.8h-.7v-4.7h-1.3v9.5h-1.8l1.8,3.1v9.1l1.3-4.2v-11h1.8Z"/>
      <path d="M497.7,462v63.3h-13.3v-63.3h13.3ZM497.2,524.8v-62.3h-12.3v62.3h12.3Z"/>
      <path d="M497.2,462.5v62.3h-12.3v-62.3h12.3ZM496.7,524.3v-61.3h-11.3v61.3h11.3Z"/>
      <rect class="st13" x="485.4" y="463" width="11.3" height="61.3"/>
      <polygon points="496.5 590.9 496.5 631 481.5 631 478.5 628.1 478 628.1 478 587.4 479.2 587.4 479.2 588.6 479.2 626.9 492.4 626.9 492.4 588.6 494.2 588.6 496.5 590.9"/>
      <polygon points="496.5 572.4 496.5 588.6 494.2 588.6 492.4 588.6 479.2 588.6 479.2 587.4 480.3 587.4 478.5 585.7 478 585.7 478 584.5 479.2 584.5 492.4 584.5 492.4 569.5 487.6 564.5 470 564.5 464.9 569 464.2 568.3 464.9 567.4 469.5 563.3 488 563.3 493.6 569.1 493.6 569.3 496.5 572.4"/>
      <rect class="st13" x="479.2" y="588.6" width="13.2" height="38.3"/>
      <polygon class="st13" points="492.4 569.5 492.4 584.5 479.2 584.5 479.2 578.7 471.4 578.7 471.4 584.5 458.2 584.5 458.2 578.7 450.4 578.7 450.4 584.5 437.1 584.5 437.1 564.5 460.1 564.5 464.2 568.3 464.9 569 470 564.5 487.6 564.5 492.4 569.5"/>
      <polygon points="479.2 578.7 479.2 584.5 478 584.5 478 582.8 475.5 582.8 475.5 588.6 473.3 588.6 471.4 588.6 458.2 588.6 458.2 587.4 459.3 587.4 457.6 585.7 457 585.7 457 584.5 458.2 584.5 471.4 584.5 471.4 578.7 479.2 578.7"/>
      <path d="M476.3,467.3v41.4l-5.9,8.1h-26.5l-3-4.1h-.4l-6.1-8.4v-49.6h1.9l-1-1.4h-.8v-23.9l6.1-8.4h26.7l6,8.4v.4l3,4.2v17.1h-.2c-.8,1-1.2,1.3-1.3,1.5-.7.8-1.5,1.6-2.3,2.4-.8.8-1.6,1.6-2.3,2.2h-.2c0,.1-10.1.1-10.1.1l-3-4.1h-.8v-4.1h-1.5v8.2h-1.9l1.9,2.5v2.2h18.6v1.1l3,4.1h0ZM475.8,508.6v-41l-3-4.1v-.8h-18.6v-2.6l-2.3-3.2h2.3v-8.2h2.5v4.1h.6l3,4.1h9.7c.7-.7,1.4-1.4,2.3-2.2.8-.8,1.6-1.6,2.2-2.4.2-.2.6-.7,1.3-1.4v-16.8l-3-4.2v-.4l-5.7-8.1h-26.2l-5.8,8.1v23.3h.6l1.8,2.4h-2.4v49l5.8,8h.4l3,4.1h26l5.6-7.8h0Z"/>
      <path d="M475.8,467.5v41l-5.6,7.8h-26l-3-4.1h-.4l-5.8-8v-49h2.4l-1.8-2.4h-.6v-23.3l5.8-8.1h26.2l5.7,8.1v.4l3,4.2v16.8c-.7.7-1.1,1.1-1.3,1.4-.7.8-1.4,1.6-2.2,2.4-.8.8-1.6,1.5-2.3,2.2h-9.7l-3-4.1h-.6v-4.1h-2.5v8.2h-2.3l2.3,3.2v2.6h18.6v.8l3,4.1h0ZM475.3,508.4v-40.7l-3-4h0v-.5h-18.6v-2.9l-2.8-3.9h2.8v-8.2h3.5v4.1h.3l3,4.1h9.2c.7-.6,1.4-1.3,2.1-2.1.8-.8,1.5-1.6,2.2-2.3.2-.2.6-.7,1.2-1.3v-16.4l-3-4.2v-.4l-5.5-7.7h-25.7l-5.6,7.7v22.6h.3l2.5,3.4h-2.8v48.3l5.6,7.7h.4l3,4.1h25.4l5.4-7.5h0Z"/>
      <polygon points="475.5 590.9 475.5 631 460.5 631 457.6 628.1 457 628.1 457 587.4 458.2 587.4 458.2 588.6 458.2 626.9 471.4 626.9 471.4 588.6 473.3 588.6 475.5 590.9"/>
      <polygon points="475.3 467.7 475.3 508.4 469.9 515.8 444.5 515.8 441.5 511.8 441.1 511.8 435.5 504 435.5 503.7 435.7 503.7 441 511.1 466.8 511.1 472.1 503.7 472.1 463.8 472.3 463.6 475.3 467.7"/>
      <path d="M475.3,434.3v16.4c-.6.6-1,1-1.2,1.3-.7.8-1.5,1.6-2.2,2.3-.8.8-1.5,1.5-2.1,2.1h-9.2l-3-4.1h-.3v-.7h9.5c.9-1,1.8-1.9,2.6-2.8.8-.9,1.7-1.8,2.6-2.8h.1v-16h.2l3,4.2h0Z"/>
      <path d="M472.3,463.6h0s-.2.2-.2.2h-20.5l3.8,20.8h2v5.6h-7v-33.9h-14.7v47.3h-.2v-48h2.8l-2.5-3.4h-.3v-22.6l5.6-7.7h25.7l5.5,7.7v.4h-.2c0,0-5.2-7.4-5.2-7.4h-25.8l-5.3,7.4v21.6h14.7v-8.2h7v8.2h-.2v-3.4h-3.5v8.2h-2.8l2.8,3.9v2.9h18.6v.4h0ZM457.2,489.6v-2.2l-1.6-2.1h-.3l-.7-3.6h-1v7.9h3.5,0Z"/>
      <path d="M472.1,463.8v39.9l-5.3,7.4h-25.7l-5.3-7.4v-47.3h14.7v33.9h7v-5.6h-2l-3.8-20.8h20.5ZM471.6,503.6v-39.2h-19.4l3.7,19.8h2.1v6.6h-8v-33.9h-13.7v46.7l5.1,7h25.2l5.1-7Z"/>
      <path d="M472.1,430.1v15.9h-.1c-.9,1.1-1.7,2-2.6,2.9-.9.9-1.7,1.8-2.6,2.6h-.1c0,.1-9.2.1-9.2.1v-8.2h-7v8.2h-14.7v-21.6l5.3-7.4h25.8l5.2,7.4h0q0,0,0,0ZM471.6,445.8v-15.6l-5-7h-25.3l-5.1,7v21h13.7v-8.2h8v8.2h8.5c.9-.9,1.7-1.7,2.6-2.6.8-.9,1.7-1.8,2.6-2.8h0Z"/>
      <path d="M471.6,464.3v39.2l-5.1,7h-25.2l-5.1-7v-46.7h13.7v33.9h8v-6.6h-2.1l-3.7-19.8h19.4ZM471.1,503.4v-38.6h-18.3l3.5,18.8h2.2v7.6h-9v-33.9h-12.7v46l4.8,6.7h24.7l4.8-6.7h0Z"/>
      <path d="M471.6,430.2v15.6c-.9.9-1.7,1.9-2.6,2.8-.8.9-1.7,1.8-2.6,2.6h-8.5v-8.2h-8v8.2h-13.7v-21l5.1-7h25.3l5,7h0ZM471.1,445.6v-15.2l-4.7-6.7h-24.8l-4.8,6.7v20.3h12.7v-8.2h9v8.2h7.8c.8-.8,1.6-1.6,2.4-2.5.8-.9,1.6-1.7,2.5-2.6h0Z"/>
      <rect class="st13" x="458.2" y="588.6" width="13.2" height="38.3"/>
      <polygon class="st13" points="471.1 464.8 471.1 503.4 466.2 510.1 441.6 510.1 436.7 503.4 436.7 457.4 449.4 457.4 449.4 491.3 458.4 491.3 458.4 483.6 456.3 483.6 452.8 464.8 471.1 464.8"/>
      <path class="st13" d="M471.1,430.3v15.2c-.8.9-1.7,1.8-2.5,2.6-.8.8-1.6,1.7-2.4,2.5h-7.8v-8.2h-9v8.2h-12.7v-20.3l4.8-6.7h24.8l4.7,6.7h0Z"/>
      <path d="M464.9,567.4l-.8.8-4.1-3.8h-23v20h13.3v-5.8h7.8v5.8h-1.2v-1.7h-2.5v5.8h-2.3l2.3,2.3v40.2h-15.2l-2.9-2.9h-.5v-40.7h2.3l-1.7-1.7h-.5v-22.4h24.7l4.4,4.1h0ZM450.4,626.9v-38.3h-13.3v38.3h13.3Z"/>
      <path d="M457.2,487.4v2.2h-3.5v-7.8h1c0,0,.7,3.5.7,3.5h.3l1.6,2.1h0ZM456.7,489.1v-1.5l-1.3-1.8h-.5l-.8-4v7.3h2.5,0Z"/>
      <path d="M456.7,487.6v1.5h-2.5v-7.3l.8,4h.5l1.3,1.8h0ZM456.2,488.6v-.9l-1.1-1.5h-.5v2.3h1.5Z"/>
      <rect class="st13" x="437.1" y="588.6" width="13.3" height="38.3"/>
      <path d="M435.1,566.8l-7.7,21.8h-3.1l2.3,2.3-3.6,10.3v29.8h-15.1l-2.9-2.9h-.5v-30.1l-3.7-10.6h1.5l-1.7-1.7h-.5l-7.8-22.4h16.5l.2.7,2.8,2.7,1.5,4.8,2.7-8.3h16.3l-.2.5,3,3h0ZM423.6,584.5l7-20h-13.9l-4.6,13.9-4.4-13.9h-14l6.9,20h22.8ZM418.8,598l3.3-9.4h-19.9l3.3,9.3v29h13.3v-28.9h0Z"/>
      <polygon class="st13" points="430.6 564.5 423.6 584.5 400.8 584.5 393.8 564.5 407.8 564.5 412.2 578.4 416.7 564.5 430.6 564.5"/>
      <polygon class="st13" points="422.1 588.6 418.8 598 418.8 626.9 405.5 626.9 405.5 597.9 402.2 588.6 422.1 588.6"/>
      <path d="M400.2,423.1l3.5,4.1-4.8,23h-14.5v5.5h9.1l-.3,1.1,3.5,4.1-4.8,22.9h-7.5v5.8h16.1l-.3,1.2,3.5,4.1-4.8,23h-32.7l-3.4-4.1h-.9v-58h2.1l-1.2-1.4h-.9v-32.3h38.6l-.3,1.1h0ZM403.1,427.4l-3.5-4.1.2-.8h-37.4v31.3h.6l2,2.4h-2.6v57h.6l3.4,4.1h32l4.6-22.4-3.5-4.1.2-.8h-16v-6.8h7.6l4.6-22.2-3.5-4.1.2-.8h-8.9v-6.5h14.6l4.6-22.4h0Z"/>
      <path d="M399.6,423.3l3.5,4.1-4.6,22.4h-14.6v6.5h8.9l-.2.8,3.5,4.1-4.6,22.2h-7.6v6.8h16l-.2.8,3.5,4.1-4.6,22.4h-32l-3.4-4.1h-.6v-57h2.6l-2-2.4h-.6v-31.3h37.4l-.2.8h0ZM402.5,427.5l-3.5-4.1v-.4c.1,0-36.2,0-36.2,0v30.3h.4l2.8,3.4h-3.2v56h.4l3.4,4.1h31.4l4.5-21.7-3.5-4.1v-.4c.1,0-15.7,0-15.7,0v-7.8h7.7l4.5-21.6-3.5-4.1v-.4c.1,0-8.7,0-8.7,0v-7.5h14.7l4.5-21.7h0Z"/>
      <path d="M399.1,423.4l3.5,4.1-4.5,21.7h-14.7v7.5h8.8v.4c-.1,0-.5.3-.5.3h-28.3v54.7h-.4v-55.4h3.2l-2.8-3.4h-.4v-30.3h36.3v.4h-.1ZM394.3,444.5l4.3-20.8h-35.4v29h16.3v-8.2h14.7Z"/>
      <polygon points="399.1 491 402.5 495.1 398.1 516.8 366.6 516.8 363.3 512.8 362.9 512.8 362.9 512.1 363.3 512.1 394.3 512.1 398.7 491.3 399.1 491"/>
      <polygon points="399.2 490.6 399.1 491 398.7 491.3 379.6 491.3 379.6 478.1 387.3 478.1 391.6 457.4 392 457.1 395.5 461.2 391 482.8 383.4 482.8 383.4 490.6 399.2 490.6"/>
      <path d="M398.7,423.6l-4.3,20.8h-14.7v8.2h-16.3v-29h35.4ZM393.9,444l4.1-19.8h-34.3v28h15.3v-8.2h14.8Z"/>
      <path d="M398.7,491.3l-4.3,20.8h-31.1v-54.7h28.3l-4.3,20.7h-7.7v13.2h19ZM393.9,511.6l4.1-19.8h-18.9v-14.2h7.8l4.1-19.7h-27.2v53.7h30.2Z"/>
      <path d="M398,424.1l-4.1,19.8h-14.8v8.2h-15.3v-28h34.3ZM393.5,443.5l3.9-18.8h-33.1v27h14.3v-8.2h14.9Z"/>
      <path d="M398,491.8l-4.1,19.8h-30.2v-53.7h27.2l-4.1,19.7h-7.8v14.2h18.9ZM393.5,511.1l3.9-18.8h-18.8v-15.2h7.9l3.9-18.7h-26.1v52.7h29.2,0Z"/>
      <polygon class="st13" points="397.4 424.6 393.5 443.5 378.6 443.5 378.6 451.6 364.3 451.6 364.3 424.6 397.4 424.6"/>
      <polygon class="st13" points="397.4 492.3 393.5 511.1 364.3 511.1 364.3 458.4 390.4 458.4 386.5 477.1 378.6 477.1 378.6 492.3 397.4 492.3"/>
      <path d="M392.7,596.2v29.3l-5.5,5.6h-25.2l-2.9-2.9h-.4l-5.7-5.8v-35h2.3l-1.7-1.7h-.5v-16.6l5.7-5.8h25.5l.4.4-.8.8h-24.5l-4.9,5v15h13.3v-5.8h7.8v5.8h-1.2v-1.7h-2.5v5.8h-2.3l2.3,2.3v1.8h18.1v.5l2.9,2.9h0ZM388.5,621.9v-28h-18.8l3.6,14.2h2v4.7h-7.8v-24.2h-13.3v33.3l4.9,5h24.5l4.9-5h0ZM374.1,611.6v-1.1l-1.3-1.3h-.5l-.7-2.8v5.2h2.5Z"/>
      <path d="M392.7,572.4v12c-.7.5-1.1.8-1.3,1-.7.5-1.4,1.1-2.2,1.7s-1.5,1.1-2.2,1.6h-9.4l-2.9-2.9h-.5v-1.2h9.4c.9-.6,1.7-1.2,2.5-1.9.8-.6,1.7-1.3,2.5-2v-11.1l-4.8-5,.8-.8,5.2,5.4v.3l2.9,3h0Z"/>
      <polygon class="st13" points="388.5 593.9 388.5 621.9 383.6 626.9 359.2 626.9 354.2 621.9 354.2 588.6 367.5 588.6 367.5 612.8 375.3 612.8 375.3 608 373.3 608 369.7 593.9 388.5 593.9"/>
      <path class="st13" d="M388.5,569.5v11.1c-.9.7-1.7,1.3-2.5,2-.8.6-1.7,1.3-2.5,1.9h-8.2v-5.8h-7.8v5.8h-13.3v-15l4.9-5h24.5l4.8,5h0Z"/>
      <path d="M352,501.2l3.7,4.6-5,26.1h-30.4l-3.6-4.7h-.9v-65.9h2.3l-1.4-1.8h-.9v-36.7h20.4v1.2l3.6,4.7v35.5h-2.3l2.3,3v32.7h12.5l-.3,1.2h0ZM355.2,506l-3.7-4.7.2-.9h-12.3v-33l-2.8-3.6h2.8v-34.8l-3.6-4.7v-.9h-19.4v35.7h.7l2.1,2.8h-2.8v64.9h.7l3.6,4.7h29.7l4.9-25.5h0Z"/>
      <path d="M351.5,501.4l3.7,4.7-4.9,25.5h-29.7l-3.6-4.7h-.7v-64.9h2.8l-2.1-2.8h-.7v-35.7h19.4v.9l3.6,4.7v34.8h-2.8l2.8,3.6v33h12.3l-.2.9h0ZM354.7,506.2l-3.7-4.7v-.5c.1,0-12,0-12,0v-33.4l-3.4-4.3h3.4v-34.1l-3.6-4.6v-.5h-18.4v34.7h.4l2.9,3.8h-3.4v63.9h.4l3.6,4.7h29l4.7-24.8Z"/>
      <polygon points="351 501.5 354.7 506.2 350 531 320.9 531 317.3 526.3 316.9 526.3 316.9 525.4 317.3 525.4 345.9 525.4 350.4 501.9 351 501.5"/>
      <polygon points="351.1 501 351 501.5 350.4 501.9 334.8 501.9 334.8 463.3 335.6 463.3 338.9 467.6 338.9 501 351.1 501"/>
      <path d="M350.4,501.9l-4.5,23.6h-28.6v-62.1h17.5v38.6h15.6ZM345.5,524.9l4.3-22.6h-15.5v-38.6h-16.5v61.1h27.7Z"/>
      <path d="M349.8,502.4l-4.3,22.6h-27.7v-61.1h16.5v38.6h15.5ZM345.1,524.4l4.1-21.6h-15.4v-38.6h-15.5v60.1h26.8Z"/>
      <polygon class="st13" points="349.2 502.9 345.1 524.4 318.3 524.4 318.3 464.3 333.8 464.3 333.8 502.9 349.2 502.9"/>
      <path d="M338.9,429.2v34.1h-21.6v62.1h-.5v-63h3.4l-2.9-3.8h-.4v-34.7h18.4v.5l3.6,4.6h0ZM334.8,457.8v-32.9h-17.5v32.9h17.5Z"/>
      <path d="M334.8,424.9v32.9h-17.5v-32.9h17.5ZM334.3,457.3v-31.9h-16.5v31.9h16.5Z"/>
      <path d="M334.3,425.4v31.9h-16.5v-31.9h16.5ZM333.8,456.8v-30.9h-15.5v30.9h15.5Z"/>
      <rect class="st13" x="318.3" y="425.9" width="15.5" height="30.9"/>
      <path d="M309.9,429.8v30.1h-10.4v10.8h-2.2l2.2,3.6v74.8h-18l-3.3-5.4h-.8v-76.1h2.2l-1.4-2.2h-.8v-5.4h-6.2l-3.3-5.4h-.9v-31.5h39.6v1.4l3.3,5.4ZM309.4,459.4v-29.5l-3.3-5.4v-1h-38.6v30.5h.6l3.3,5.4h6.4v5.4h.6l2,3.2h-2.6v75.1h.6l3.3,5.4h17.2v-74.1l-2.6-4.2h2.6v-10.8h10.4,0Z"/>
      <path d="M309.4,429.9v29.5h-10.4v10.8h-2.6l2.6,4.2v74.1h-17.2l-3.3-5.4h-.6v-75.1h2.6l-2-3.2h-.6v-5.4h-6.4l-3.3-5.4h-.6v-30.5h38.6v1l3.3,5.4h0ZM308.9,458.9v-28.8l-3.3-5.4v-.6h-37.6v29.5h.4l3.3,5.4h6.7v5.4h.4l2.6,4.2h-3v74.1h.4l3.3,5.4h16.5v-73.5l-3-4.9h3v-10.8h10.4,0Z"/>
      <polygon points="308.9 430 308.9 458.9 298.5 458.9 298.5 469.7 295.5 469.7 294.8 469.7 278.7 469.7 278.7 541.4 278.3 541.4 278.3 468.5 281.3 468.5 278.7 464.3 278.3 464.3 278.3 463.1 278.7 463.1 294.8 463.1 294.8 452.3 305.2 452.3 305.2 425.2 268.3 425.2 268.3 452.3 267.9 452.3 267.9 424 305.5 424 305.5 424.6 308.9 430"/>
      <path d="M305.2,425.2v27.1h-10.4v10.8h-16.1v-10.8h-10.4v-27.1h36.9ZM304.7,451.8v-26.1h-35.9v26.1h10.4v10.8h15.1v-10.8h10.4,0Z"/>
      <path d="M304.7,425.7v26.1h-10.4v10.8h-15.1v-10.8h-10.4v-26.1h35.9ZM304.2,451.3v-25.1h-34.9v25.1h10.4v10.8h14.1v-10.8h10.4,0Z"/>
      <polygon class="st13" points="304.2 426.2 304.2 451.3 293.8 451.3 293.8 462.1 279.7 462.1 279.7 451.3 269.3 451.3 269.3 426.2 304.2 426.2"/>
      <polygon points="298.5 474.5 298.5 548 282 548 278.7 542.6 278.3 542.6 278.3 541.4 278.7 541.4 294.8 541.4 294.8 469.7 295.5 469.7 298.5 474.5"/>
      <path d="M294.8,469.7v71.8h-16.1v-71.8h16.1ZM294.3,540.9v-70.8h-15.1v70.8h15.1Z"/>
      <path d="M294.3,470.2v70.8h-15.1v-70.8h15.1ZM293.8,540.4v-69.8h-14.1v69.8h14.1Z"/>
      <rect class="st13" x="279.7" y="470.7" width="14.1" height="69.8"/>
      <polygon points="278.7 452.3 278.7 463.1 278.3 463.1 278.3 458.9 271.6 458.9 268.3 453.5 267.9 453.5 267.9 452.3 268.3 452.3 278.7 452.3"/>
      <path d="M262,430.5v33.4h-10.4v12h-2.2l2.2,4v83.1h-18l-3.3-6h-.8v-84.5h2.2l-1.4-2.6h-.8v-6h-6.2l-3.3-6h-.8v-34.9h39.6v1.5l3.3,6ZM261.5,463.4v-32.8l-3.3-6v-1.1h-38.6v33.9h.6l3.3,6h6.4v6h.6l2,3.6h-2.6v83.5h.6l3.3,6h17.2v-82.4l-2.6-4.7h2.6v-12h10.4Z"/>
      <path d="M261.5,430.6v32.8h-10.4v12h-2.6l2.6,4.7v82.4h-17.2l-3.3-6h-.6v-83.5h2.6l-2-3.6h-.6v-6h-6.4l-3.3-6h-.6v-33.9h38.6v1.1l3.3,6h0ZM261,462.9v-32.1l-3.1-5.6-.2-.4v-.8h-37.6v32.9h.4l3.3,6h6.6v6h.4l2.5,4.6h-2.9v82.5h.4l3.3,6h16.4v-81.8l-3-5.3h3v-12h10.4,0Z"/>
      <polygon points="261 430.7 261 462.9 250.6 462.9 250.6 474.9 247.7 474.9 246.9 474.9 230.8 474.9 230.8 554.6 230.4 554.6 230.4 473.5 233.4 473.5 230.9 468.9 230.4 468.9 230.4 467.5 230.8 467.5 246.9 467.5 246.9 455.5 257.3 455.5 257.3 425.4 257.9 425.1 261 430.7"/>
      <polygon points="257.7 424.7 257.9 425.1 257.3 425.4 220.4 425.4 220.4 455.5 230.8 455.5 230.8 467.5 230.4 467.5 230.4 462.9 223.8 462.9 220.5 456.9 220.1 456.9 220.1 424 257.7 424 257.7 424.7"/>
      <path d="M257.3,425.4v30h-10.4v12h-16.1v-12h-10.4v-30h36.9ZM256.8,455v-29h-35.9v29h10.4v12h15.1v-12h10.4,0Z"/>
      <path d="M256.8,425.9v29h-10.4v12h-15.1v-12h-10.4v-29h35.9ZM256.3,454.5v-28h-34.9v28h10.4v12h14.1v-12h10.4,0Z"/>
      <polygon class="st13" points="256.3 426.4 256.3 454.5 245.9 454.5 245.9 466.5 231.8 466.5 231.8 454.5 221.4 454.5 221.4 426.4 256.3 426.4"/>
      <polygon points="250.6 480.2 250.6 562 234.2 562 230.9 556 230.4 556 230.4 554.6 230.8 554.6 246.9 554.6 246.9 474.9 247.7 474.9 250.6 480.2"/>
      <path d="M246.9,474.9v79.7h-16.1v-79.7h16.1ZM246.4,554.1v-78.7h-15.1v78.7h15.1Z"/>
      <path d="M246.4,475.4v78.7h-15.1v-78.7h15.1ZM245.9,553.6v-77.7h-14.1v77.7h14.1Z"/>
      <rect class="st13" x="231.8" y="475.9" width="14.1" height="77.7"/>
      <path d="M214.5,484.5l7.7,89.5h-17.3l-3.1-6.5h-.7l-1.4-16.7-1.6,13.2h-4.2l-.8,9.9h-17.2l-3.1-6.5h-.9l7.6-91.2h2.5l-1.3-2.8h-.9l4.2-50.5h22.7v2c.1,0,3.1,6.1,3.1,6.1l4.1,48.9h-1.7l2.1,4.5h0ZM221.6,573.5l-7.6-89-2.4-5h1.9l-4-48.3-3-6.1v-1.6h-21.9l-4.1,49.5h.7l1.8,3.8h-2.9l-7.6,90.2h.7l3.1,6.5h16.4l.8-9.9h4.2l2.1-17.8,1.7,21.2h.6l3.1,6.5h16.4Z"/>
      <path d="M214,484.5l7.6,89h-16.4l-3.1-6.5h-.6l-1.7-21.2-2.1,17.8h-4.2l-.8,9.9h-16.4l-3.1-6.5h-.7l7.6-90.2h2.9l-1.8-3.8h-.7l4.1-49.5h21.8v1.6c.1,0,3.1,6.1,3.1,6.1l4,48.3h-1.9l2.4,5h0ZM221.1,573l-7.6-88.3-2.7-5.7h2.2l-4-47.7-3-6.2v-1.1h-20.9l-4,48.5h.4l2.3,4.8h-3.2l-7.3,87.5v1.7c-.1,0,.3,0,.3,0l3.1,6.5h15.7l.8-9.9h4.2l2-17.3h1l1.6,19.2v1.6h.6l3.1,6.5h15.6Z"/>
      <polygon points="213.5 484.7 221.1 573 205.5 573 202.4 566.5 202 566.5 201.9 564.9 202.2 564.9 217.7 564.9 210.2 479 210.8 479 213.5 484.7"/>
      <path d="M210.2,479l7.5,85.9h-15.4v-.5s-3.6-43.4-3.6-43.4l-3.2-39.4-3,41h5.5l-3.8,32.3h-4.2l-.9,9.9h-15.4l7.2-85.9h29.4,0ZM217.1,564.4l-7.4-84.9h-14l6.9,84.9h14.4,0ZM193.6,554.5l3.7-31.3h-5.5l3.2-43.7h-13.9l-7.2,84.9h14.4l.9-9.9h4.2Z"/>
      <path d="M209.8,479.5l7.4,84.9h-14.4l-6.9-84.9h14ZM216.6,563.9l-7.3-83.9h-13l6.8,83.9h13.4Z"/>
      <polygon class="st13" points="209.3 480 216.6 563.9 203.1 563.9 196.3 480 209.3 480"/>
      <path d="M209,431.3l4,47.7h-32.1l-7.2,85.9h-.3s7.3-87.5,7.3-87.5h3.2l-2.3-4.8h-.4l4-48.5h20.9v1.1c0,0,3,6.2,3,6.2h0ZM209.5,470.9l-3.8-45.3h-20.4l-3.8,45.3h28.1Z"/>
      <path d="M205.7,425.6l3.8,45.3h-28.1l3.8-45.3h20.4,0ZM209,470.4l-3.7-44.3h-19.5l-3.7,44.3h27Z"/>
      <path d="M205.3,426.1l3.7,44.3h-26.9l3.7-44.3h19.5ZM208.5,469.9l-3.6-43.3h-18.6l-3.6,43.3h25.9,0Z"/>
      <polygon class="st13" points="204.8 426.6 208.5 469.9 182.6 469.9 186.2 426.6 204.8 426.6"/>
      <polygon points="202.2 564.4 202.2 564.9 201.9 564.9 200.3 545.8 199.3 545.7 197.3 563.1 193 563.1 192.3 573 176.6 573 173.6 566.5 173.1 566.5 173.3 564.9 173.6 564.9 189 564.9 189.9 555 194.1 555 197.9 522.7 196.3 522.7 196.3 521 198.4 521 198.7 521 202.2 564.4"/>
      <polygon points="195.5 481.6 198.7 521 198.4 521 197.8 515 196.8 515 196.3 521 196.3 522.7 192.4 522.7 195.5 481.6"/>
      <path d="M197.8,515l.5,6h-2l.5-6h1ZM197.8,520.5l-.5-5.5-.5,5.5h1Z"/>
      <polygon points="197.3 515.1 197.8 520.5 196.9 520.5 197.3 515.1"/>
      <path d="M197.3,523.2l-3.7,31.3h-4.2l-.9,9.9h-14.4l7.2-84.9h13.9l-3.2,43.7h5.5ZM193.2,554l3.6-30.3h-5.4l3.2-43.7h-12.9l-7.1,83.9h13.4l.9-9.9h4.2Z"/>
      <polygon class="st13" points="196.8 523.7 193.2 554 188.9 554 188.1 563.9 174.7 563.9 181.7 480 194.6 480 191.3 523.7 196.8 523.7"/>
      <path d="M167.3,521.4v58.4l-7.4,14.1h-41l-3.9-7.3h-.9v-103.2h2.7l-1.8-3.4h-.9v-57.1h41.8l7.5,14.8v.7l3.9,7.6v41.4h-2.7l2.7,5.1v7.4s-5,11.2-5,11.2l1.1,2v.9l3.9,7.3h0ZM166.8,579.7v-58.2l-3.9-7.3v-.9l-1.2-2.1,5.1-11.5v-7.1l-3-5.7h3v-40.8l-3.9-7.6v-.7l-7.3-14.4h-41v56.1h.7l2.3,4.3h-3v102.2h.7l3.9,7.3h40.4l7.2-13.8Z"/>
      <path d="M166.8,521.5v58.2l-7.2,13.8h-40.4l-3.9-7.3h-.7v-102.2h3l-2.3-4.3h-.7v-56.1h41l7.3,14.4v.7l3.9,7.6v40.8h-3l3,5.7v7.1l-5.1,11.5,1.2,2.1v.9l3.9,7.3h0ZM166.3,579.6v-58l-3.9-7.3v-.9l-1.3-2.2,5.1-11.6v-6.9l-3.3-6.3h3.3v-40.2l-3.9-7.6v-.7l-7.1-14h-40.2v55.1h.5l2.8,5.4h-3.3v101.2h.5l3.9,7.3h39.8l7-13.4h0Z"/>
      <polygon points="166.3 521.7 166.3 579.6 159.3 593 119.4 593 115.6 585.7 115.1 585.7 115.1 583.7 115.6 583.7 155.2 583.7 161.9 570.9 161.9 514.3 162.4 514.3 166.3 521.7"/>
      <polygon points="166.3 492.8 166.3 499.7 161.2 511.3 162.4 513.4 162.4 514.3 161.9 514.3 161.9 514.3 156.1 504.1 161.8 491 161.9 486.5 162.9 486.5 166.3 492.8"/>
      <polygon points="166.3 446.3 166.3 486.5 162.9 486.5 161.9 486.5 141.2 486.5 134.2 495 134.2 486.5 135.3 486.5 136.8 489.7 138.6 487.5 138.6 487.7 141.1 484.5 146.2 484.5 143.4 479.1 142.9 479.1 142.9 477.1 143.4 477.1 161.9 477.1 161.9 439 162.4 438.7 166.3 446.3"/>
      <polygon points="162.4 438 162.4 438.7 161.9 439 155.3 426 115.6 426 115.6 477.1 134.2 477.1 134.2 462.5 143.4 462.5 143.4 477.1 142.9 477.1 142.9 471.8 138.6 471.8 138.6 486.5 135.3 486.5 134.2 486.5 115.6 486.5 115.6 583.7 115.1 583.7 115.1 484.5 118.4 484.5 115.6 479.1 115.1 479.1 115.1 424 155.3 424 162.4 438"/>
      <path d="M161.9,514.3v56.6l-6.7,12.8h-39.5v-97.2h18.6v8.5l7-8.5h20.7v4.6s-5.7,13.1-5.7,13.1l5.7,10.2h0s0,0,0,0ZM161.4,570.8v-56.4l-5.8-10.3,5.8-13.3v-3.9h-20l-7.7,9.4v-9.4h-17.6v96.2h38.7l6.5-12.4h0Z"/>
      <path d="M161.9,439v38.2h-18.4v-14.7h-9.2v14.7h-18.6v-51.2h39.7l6.6,13h0ZM161.4,476.6v-37.6l-6.4-12.6h-38.9v50.2h17.6v-14.7h10.2v14.7h17.4Z"/>
      <path d="M161.4,514.5v56.4l-6.5,12.4h-38.7v-96.2h17.6v9.4l7.7-9.4h20v3.9l-5.8,13.3,5.8,10.3h0ZM160.9,570.7v-56.1l-5.8-10.4,5.8-13.4v-3.3h-19.2l-8.4,10.3v-10.3h-16.6v95.2h37.9l6.3-12h0Z"/>
      <path d="M161.4,439.1v37.6h-17.4v-14.7h-10.2v14.7h-17.6v-50.2h38.9l6.4,12.6h0ZM160.9,476.1v-37l-6.2-12.2h-38.1v49.2h16.6v-14.7h11.2v14.7h16.4Z"/>
      <path class="st13" d="M160.9,514.6v56.1l-6.3,12h-37.9v-95.2h16.6v10.3l8.4-10.3h19.2v3.3l-5.8,13.4,5.8,10.4h0ZM144.4,547.5v-21.5l-11.2-13.8v35.4h11.2Z"/>
      <polygon class="st13" points="160.9 439.2 160.9 476.1 144.4 476.1 144.4 461.5 133.2 461.5 133.2 476.1 116.6 476.1 116.6 427 154.7 427 160.9 439.2"/>
      <path d="M143.4,479.1l2.8,5.4h-5l-2.5,3.2v-.2l-1.8,2.3-1.5-3.3h3.3v-14.7h4.2v7.3h.5,0ZM145.4,484l-2.3-4.3h-.7v-7.3h-3.2v14l1.8-2.3h4.4ZM136.9,488.8l1.4-1.8h-2.3l.8,1.8Z"/>
      <path d="M143.1,479.6l2.3,4.3h-4.4l-1.8,2.3v-14h3.2v7.3h.7ZM144.5,483.5l-1.8-3.4h-.9v-7.3h-2.2v12l1.1-1.3h3.9Z"/>
      <path d="M144.4,526v21.5h-11.2v-35.4l11.2,13.8h0ZM143.9,547v-20.8l-10.2-12.6v33.5h10.2Z"/>
      <path d="M143.9,526.1v20.8h-10.2v-33.5l10.2,12.6h0ZM143.4,546.5v-20.2l-9.2-11.4v31.5h9.2Z"/>
      <path d="M143.4,526.3v20.2h-9.2v-31.5l9.2,11.4ZM142.9,544.5v-15.1l-4.2-5.1v20.2h4.2Z"/>
      <path d="M142.9,529.4v15.1h-4.2v-20.2l4.2,5.1h0ZM142.3,544v-14.4l-3.2-3.9v18.3h3.2Z"/>
      <path d="M142.3,529.6v14.4h-3.2v-18.3l3.2,3.9ZM141.9,543.5v-13.8l-2.2-2.7v16.5h2.2Z"/>
      <path d="M138.4,487l-1.4,1.8-.8-1.8h2.3ZM137,487.8l.3-.4h-.5l.2.4Z"/>
    </g>
    <g>
      <line class="st3" x1="-2.7" y1="-50" x2="-2.7" y2="-13.8"/>
      <line class="st3" x1="-73.2" y1="4.3" x2="-26.2" y2="4.3"/>
      <line class="st3" x1="-73.2" y1="862.8" x2="-26.2" y2="862.8"/>
      <line class="st3" x1="-2.7" y1="917.1" x2="-2.7" y2="880.9"/>
      <line class="st3" x1="844.3" y1="-50" x2="844.3" y2="-13.8"/>
      <line class="st3" x1="914.7" y1="4.3" x2="867.8" y2="4.3"/>
      <line class="st3" x1="914.7" y1="862.8" x2="867.8" y2="862.8"/>
      <line class="st3" x1="844.3" y1="917.1" x2="844.3" y2="880.9"/>
    </g>
  </g>
</svg>